<?xml version="1.0" encoding="iso-8859-1"?>
<!-- Generator: Adobe Illustrator 19.0.0, SVG Export Plug-In . SVG Version: 6.00 Build 0)  -->
<svg version="1.1" id="Capa_1" xmlns="http://www.w3.org/2000/svg" xmlns:xlink="http://www.w3.org/1999/xlink" x="0px" y="0px"
	 viewBox="0 0 420.542 420.542" style="enable-background:new 0 0 420.542 420.542;" xml:space="preserve">
<g>
	<g>
		<path style="fill:#DB9F15;" d="M241.799,307.982H124.79c-3.127,0-5.662-2.535-5.662-5.662v-64.672
			c0-3.127,2.535-5.661,5.662-5.662l0,0c3.127,0,5.662,2.535,5.662,5.662l0.001,53.348c0,3.127,2.535,5.662,5.662,5.662
			l105.684-0.001c3.127,0,5.662,2.535,5.662,5.662v0.001C247.461,305.446,244.926,307.982,241.799,307.982z"/>
		<path style="fill:#DB9F15;" d="M247.461,325.516L247.461,325.516c-3.127,0-5.662-2.535-5.662-5.662v-35.068
			c0-3.127,2.535-5.661,5.662-5.662l0,0c3.127,0,5.662,2.535,5.662,5.662v35.068C253.123,322.98,250.588,325.515,247.461,325.516z"
			/>
	</g>
	<g>
		<path style="fill:#FFB819;" d="M172.247,414.88L172.247,414.88c-3.127,0-5.662-2.535-5.662-5.663V261.998
			c0-3.127,2.535-5.662,5.662-5.662l0,0c3.127,0,5.662,2.535,5.662,5.662v147.219C177.909,412.345,175.375,414.88,172.247,414.88z"
			/>
		<path style="fill:#FFB819;" d="M191.557,420.542h-38.62c-3.127,0-5.662-2.535-5.662-5.662l0,0c0-3.128,2.535-5.663,5.662-5.663
			h38.62c3.127,0,5.662,2.535,5.662,5.663l0,0C197.219,418.007,194.684,420.542,191.557,420.542z"/>
	</g>
	<path style="fill:#F9E0A4;" d="M302.292,19.31v-0.271h-43.271v30.779h39.385v0.581c0,15.716,12.74,28.457,28.456,28.457v-31.36
		C326.863,33.098,316.168,21.206,302.292,19.31z"/>
	<path style="fill:#FFB2B8;" d="M93.679,161.321v32.24c0,44.737,36.267,81.005,81.005,81.005l0,0
		c39.211,0,70.999-31.787,70.999-70.999v-42.246H93.679z"/>
	<g>
		<path style="fill:#D49398;" d="M109.913,180.314c0,33.009,26.759,59.768,59.768,59.768c33.008,0,59.768-26.759,59.768-59.768
			H109.913z"/>
		<path style="fill:#FFD3D6;" d="M127.009,180.314c0,28.288,22.932,51.221,51.22,51.221c28.288,0,51.221-22.933,51.221-51.221
			H127.009z"/>
	</g>
	<path style="fill:#FFB2B8;" d="M267.733,0h-26.667c-12.027,0-21.777,9.75-21.777,21.778v139.543h26.396V49.818h22.049
		c12.027,0,21.778-9.75,21.778-21.778v-6.262C289.511,9.75,279.76,0,267.733,0z"/>
	<path style="fill:#3E4543;" d="M311.003,59.4c-4.052,0-7.962-0.604-11.651-1.715c3.219,12.185,14.314,21.17,27.511,21.17V56.161
		C321.993,58.244,316.634,59.4,311.003,59.4z"/>
	<g>
		<circle style="fill:#FFFFFF;" cx="260.359" cy="25.022" r="10.734"/>
		<circle style="fill:#004987;" cx="260.359" cy="25.022" r="5.367"/>
	</g>
</g>
<g>
</g>
<g>
</g>
<g>
</g>
<g>
</g>
<g>
</g>
<g>
</g>
<g>
</g>
<g>
</g>
<g>
</g>
<g>
</g>
<g>
</g>
<g>
</g>
<g>
</g>
<g>
</g>
<g>
</g>
</svg>
