<?xml version="1.0" encoding="iso-8859-1"?>
<!-- Generator: Adobe Illustrator 19.0.0, SVG Export Plug-In . SVG Version: 6.00 Build 0)  -->
<svg version="1.1" id="Layer_1" xmlns="http://www.w3.org/2000/svg" xmlns:xlink="http://www.w3.org/1999/xlink" x="0px" y="0px"
	 viewBox="0 0 512.001 512.001" style="enable-background:new 0 0 512.001 512.001;" xml:space="preserve">
<g>
	<path style="fill:#804836;" d="M81.635,311.254l6.095,73.643c0.178,2.15,1.978,3.804,4.139,3.804h65.792
		c2.616,0,4.771-2.054,4.89-4.663l0.191-4.169c0.182-3.966-1.49-7.794-4.525-10.36l-9.765-8.257
		c-3.583-3.029-5.222-7.77-4.275-12.36l9.799-47.483L81.635,311.254z"/>
	<path style="fill:#804836;" d="M283.475,274.488l-27.909,78.097c-0.675,1.888,0.1,3.987,1.842,4.986l15.851,9.098
		c1.193,0.685,1.97,1.916,2.072,3.287l1.064,14.294c0.179,2.404-1.727,4.452-4.142,4.452h-61.005c-2.465,0-4.388-2.131-4.13-4.577
		l11.981-114.301L283.475,274.488z"/>
</g>
<path style="fill:#B8674D;" d="M511.712,216.043l-0.087,0.554c-0.985,6.267-4.443,11.891-9.6,15.598
	c-7.504,5.393-14.576,8.921-17.125,10.126c-0.647,0.306-1.353,0.441-2.068,0.402l-87.877-4.819c-0.841-0.046-1.678,0.156-2.406,0.58
	l-59.963,34.972c-1.498,0.874-2.328,2.561-2.105,4.282l9.391,72.656c0.168,1.326,0.962,2.484,2.151,3.118l20,10.729
	c1.23,0.664,2.043,1.901,2.162,3.286l1.507,16.657c0.218,2.425-1.705,4.513-4.145,4.513h-55.966c-1.814,0-3.411-1.168-3.966-2.89
	l-24.601-77.228l-17.819-15.327c-1.326-1.14-3.217-1.376-4.772-0.575c-42.05,21.665-66.23,49.724-113.843,45.009L7.795,324.523
	v-72.101c0-64.057,52.027-115.986,116.205-115.986c0,0,83.326-6.332,159.476-12.958c22.6-1.967,92.076,12.754,94.323,12.958
	l60.354,8.708c11.82,1.705,22.627,7.611,30.434,16.633l17.265,19.95c4.915,3.882,10.337,7.555,15.112,10.585
	C508.96,197.386,513.181,206.7,511.712,216.043z"/>
<g>
	<path style="fill:#91523D;" d="M294.839,307.979l-7.434-6.732c-5.384-4.877-13.321-5.702-19.576-2.011
		c-0.332,0.196-0.664,0.393-0.994,0.589l10.177,8.754l24.601,77.228c0.555,1.722,2.152,2.89,3.966,2.89h16.39l-21.942-72.52
		C299.074,313.024,297.28,310.189,294.839,307.979z"/>
	<path style="fill:#91523D;" d="M29.353,252.233c0-52.078,31.025-96.533,74.709-114.09C49.385,147.58,7.795,195.15,7.795,252.421
		v72.101l21.558,2.137V252.233z"/>
</g>
<ellipse style="fill:#804836;" cx="453.8" cy="179.796" rx="8.084" ry="8.092"/>
<path style="fill:#B8674D;" d="M23.58,194.036C-1.994,236.946,0.038,324.193,0.038,324.193v60.363c0,2.289,1.86,4.145,4.153,4.145
	H72.09c4.088,0,7.339-3.423,7.123-7.497l-0.339-6.358c-0.187-3.51-2.046-6.719-5-8.631l0,0c-4.636-3.002-6.323-8.969-3.941-13.947
	l3.451-7.214c0,0,43.928-62.821,62.299-62.82L23.58,194.036z"/>
<g>
	<path style="fill:#91523D;" d="M21.597,384.556v-60.363c0,0-2.58-73.369,16.567-118.683L23.58,194.036
		C-1.994,236.946,0.038,324.193,0.038,324.193v60.363c0,2.29,1.86,4.146,4.153,4.146H25.75
		C23.456,388.702,21.597,386.846,21.597,384.556z"/>
	<path style="fill:#91523D;" d="M421.053,169.724c-1.336,2.321-4.414,2.939-6.534,1.299c-6.506-5.034-17.635-16.078-9.851-28.246
		c5.982-9.352,16.618-12.431,28.23,0.022c1.335,1.433,1.613,3.556,0.636,5.252L421.053,169.724z"/>
</g>
<g>
</g>
<g>
</g>
<g>
</g>
<g>
</g>
<g>
</g>
<g>
</g>
<g>
</g>
<g>
</g>
<g>
</g>
<g>
</g>
<g>
</g>
<g>
</g>
<g>
</g>
<g>
</g>
<g>
</g>
</svg>
