<?xml version="1.0" encoding="iso-8859-1"?>
<!-- Generator: Adobe Illustrator 19.0.0, SVG Export Plug-In . SVG Version: 6.00 Build 0)  -->
<svg version="1.1" id="Layer_1" xmlns="http://www.w3.org/2000/svg" xmlns:xlink="http://www.w3.org/1999/xlink" x="0px" y="0px"
	 viewBox="0 0 512.001 512.001" style="enable-background:new 0 0 512.001 512.001;" xml:space="preserve">
<g>
	<path style="fill:#232F38;" d="M233.173,104.742c-4.465,0-8.084-3.622-8.084-8.091V31.079c0-4.469,3.618-8.091,8.084-8.091
		c4.465,0,8.084,3.622,8.084,8.091v65.573C241.256,101.12,237.638,104.742,233.173,104.742z"/>
	<path style="fill:#232F38;" d="M278.829,103.244c-4.465,0-8.084-3.622-8.084-8.091V31.079c0-4.469,3.618-8.091,8.084-8.091
		s8.084,3.622,8.084,8.091v64.074C286.913,99.622,283.295,103.244,278.829,103.244z"/>
	<path style="fill:#232F38;" d="M256.001,489.013c-4.465,0-8.084-3.622-8.084-8.091v-39.204c0-4.469,3.618-8.091,8.084-8.091
		c4.466,0,8.084,3.622,8.084,8.091v39.204C264.085,485.391,260.466,489.013,256.001,489.013z"/>
</g>
<g>
	<path style="fill:#FBD476;" d="M330.731,296.81v70.119c0,2.405-0.119,4.79-0.345,7.13c-0.528,5.556-1.671,10.939-3.362,16.084
		c-9.001,27.4-33.48,47.94-62.959,51.133c-2.652,0.292-5.335,0.442-8.062,0.442c-2.727,0-5.412-0.152-8.062-0.442
		c-29.481-3.193-53.96-23.733-62.959-51.133c-1.692-5.146-2.835-10.529-3.362-16.084c-0.227-2.341-0.345-4.725-0.345-7.13V296.81
		c0-0.507,0-1.003,0.022-1.499c0.108-5.556,0.83-10.949,2.091-16.149c7.977-32.687,37.576-57.141,72.617-57.141
		c20.555,0,39.235,8.415,52.784,21.974c9.54,9.546,16.534,21.65,19.833,35.167c1.261,5.2,1.983,10.594,2.091,16.149
		C330.731,295.807,330.731,296.303,330.731,296.81z"/>
	<path style="fill:#FBD476;" d="M288.283,181.945h-64.729c-6.948,0-12.631-5.684-12.631-12.631v-43.633
		c0-24.747,20.248-44.995,44.995-44.995l0,0c24.747,0,44.995,20.248,44.995,44.995v43.633
		C300.914,176.261,295.23,181.945,288.283,181.945z"/>
</g>
<g>
	<path style="fill:#CCA75E;" d="M203.499,366.93v-70.116c0-37.357,27.738-68.54,63.618-73.953
		c-3.628-0.548-7.337-0.837-11.111-0.837h-0.009c-41.101,0-74.729,33.655-74.729,74.79v70.115c0,41.134,33.628,74.789,74.729,74.789
		h0.009c3.774,0,7.484-0.289,11.111-0.837C231.237,435.47,203.499,404.286,203.499,366.93z"/>
	<path style="fill:#CCA75E;" d="M233.154,169.304v-43.589c0-20.931,14.462-38.643,33.88-43.629
		c-3.558-0.913-7.281-1.401-11.114-1.401h-0.005c-24.746,0-44.993,20.263-44.993,45.029v43.589c0,6.953,5.683,12.641,12.63,12.641
		h22.231C238.837,181.945,233.154,176.257,233.154,169.304z"/>
</g>
<g>
	<path style="fill:#2F3F4A;" d="M232.24,101.86c-3.228,10.57-13.356,16.843-22.621,14.009c-9.265-2.834-14.16-13.699-10.933-24.269
		c3.228-10.57,13.356-16.843,22.621-14.009C230.573,80.424,235.467,91.29,232.24,101.86z"/>
	<path style="fill:#2F3F4A;" d="M313.317,91.6c-3.228-10.57-13.356-16.843-22.621-14.009c-9.266,2.833-14.16,13.699-10.933,24.269
		c3.228,10.57,13.356,16.843,22.621,14.009C311.649,113.036,316.543,102.171,313.317,91.6z"/>
	<path style="fill:#2F3F4A;" d="M288.917,266.254h-65.834c-19.679,0-35.779-16.101-35.779-35.78v-45.446
		c0-19.679,16.101-35.779,35.779-35.779h65.834c19.679,0,35.78,16.101,35.78,35.779v45.446
		C324.698,250.153,308.597,266.254,288.917,266.254z"/>
</g>
<path style="fill:#232F38;" d="M207.784,230.459v-45.416c0-19.687,16.095-35.794,35.766-35.794h-20.48
	c-19.671,0-35.766,16.107-35.766,35.794v45.416c0,19.687,16.095,35.794,35.766,35.794h20.48
	C223.879,266.254,207.784,250.146,207.784,230.459z"/>
<g>
	<path style="fill:#7FD3E3;" d="M221.012,205.87c-0.205,1.187-0.592,2.342-1.154,3.441
		c-11.684,22.568-54.724,97.143-127.536,128.243c-39.989,17.087-62.819,6.569-75.775-9.622c-3.524-4.38-6.316-9.191-8.526-13.97
		c-5.282-11.402-7.286-22.708-7.987-28.026c-0.237-1.856,0.776-3.646,2.49-4.391l201.78-88.793c1.574-0.691,3.222-1.025,4.85-1.025
		c1.024,0,2.026,0.13,3.007,0.389c2.705,0.691,5.173,2.342,6.866,4.769C220.883,199.538,221.562,202.785,221.012,205.87z"/>
	<path style="fill:#7FD3E3;" d="M511.966,285.936c-0.7,5.319-2.705,16.624-7.987,28.026c-2.21,4.779-5.002,9.59-8.526,13.97
		c-12.957,16.192-35.786,26.71-75.775,9.622c-72.812-31.1-115.851-105.676-127.536-128.243c-0.56-1.1-0.949-2.255-1.154-3.441
		c-0.55-3.086,0.13-6.332,1.983-8.986c1.693-2.427,4.161-4.078,6.866-4.769c0.981-0.259,1.983-0.389,3.007-0.389
		c1.628,0,3.277,0.334,4.85,1.025l201.78,88.793C511.191,282.29,512.203,284.08,511.966,285.936z"/>
</g>
<g>
	<path style="fill:#CADFE3;" d="M221.012,205.87c-16.654,14.531-91.621,76.689-204.465,122.062c-3.524-4.38-6.316-9.191-8.526-13.97
		c0.237-0.13,0.485-0.248,0.734-0.345c115.237-45.966,192.435-111.846,203.408-121.501c2.705,0.691,5.173,2.342,6.866,4.769
		C220.883,199.538,221.562,202.785,221.012,205.87z"/>
	<path style="fill:#CADFE3;" d="M503.979,313.962c-2.21,4.779-5.002,9.59-8.526,13.97
		C382.609,282.559,307.642,220.401,290.988,205.87c-0.55-3.086,0.13-6.332,1.983-8.986c1.693-2.427,4.161-4.078,6.866-4.769
		c10.974,9.655,88.172,75.535,203.408,121.501C503.494,313.714,503.742,313.832,503.979,313.962z"/>
</g>
<g>
	<path style="fill:#232F38;" d="M330.709,295.31c-0.194,0.022-0.388,0.032-0.582,0.032H181.875c-0.194,0-0.388-0.01-0.582-0.032
		c0.108-5.556,0.83-10.949,2.091-16.149h145.235C329.879,284.361,330.601,289.755,330.709,295.31z"/>
	<rect x="181.27" y="310.753" style="fill:#232F38;" width="149.462" height="16.181"/>
	<path style="fill:#232F38;" d="M261.93,350.445c0,4.477-3.622,8.091-8.084,8.091h-72.574v-16.181h72.574
		C258.308,342.355,261.93,345.98,261.93,350.445z"/>
	<path style="fill:#232F38;" d="M330.731,342.355v16.181h-26.947c-4.463,0-8.084-3.613-8.084-8.091c0-4.466,3.622-8.091,8.084-8.091
		L330.731,342.355L330.731,342.355z"/>
	<path style="fill:#232F38;" d="M330.386,374.06c-0.528,5.556-1.671,10.939-3.362,16.084H184.979
		c-1.692-5.146-2.835-10.529-3.362-16.084c0.388-0.065,0.787-0.097,1.196-0.097H329.19
		C329.599,373.963,329.997,373.995,330.386,374.06z"/>
</g>
<g>
</g>
<g>
</g>
<g>
</g>
<g>
</g>
<g>
</g>
<g>
</g>
<g>
</g>
<g>
</g>
<g>
</g>
<g>
</g>
<g>
</g>
<g>
</g>
<g>
</g>
<g>
</g>
<g>
</g>
</svg>
