<?xml version="1.0" encoding="iso-8859-1"?>
<!-- Generator: Adobe Illustrator 19.0.0, SVG Export Plug-In . SVG Version: 6.00 Build 0)  -->
<svg version="1.1" id="Layer_1" xmlns="http://www.w3.org/2000/svg" xmlns:xlink="http://www.w3.org/1999/xlink" x="0px" y="0px"
	 viewBox="0 0 512.002 512.002" style="enable-background:new 0 0 512.002 512.002;" xml:space="preserve">
<g>
	<path style="fill:#FBD476;" d="M246.417,210.503c0,0-61.366-111.291-172.263-111.392c-132.314-0.121-34.17,153.468,16.153,185.2
		c0,0-37.897,31.731,11.804,47.908c0,0-48.149,107.948,17.085,101.104c65.234-6.844,72.639-123.129,127.22-120.982V210.503z"/>
	<path style="fill:#FBD476;" d="M265.587,210.503c0,0,61.366-111.291,172.263-111.392c132.314-0.121,34.17,153.468-16.153,185.2
		c0,0,37.897,31.731-11.804,47.908c0,0,48.149,107.948-17.085,101.104c-65.234-6.844-72.639-123.129-127.22-120.982V210.503z"/>
</g>
<g>
	<path style="fill:#CCA75E;" d="M117.841,330.783c-34.538-13.143-19.073-34.737-11.257-43.056c1.724-1.836,1.419-4.756-0.622-6.232
		C56.071,245.441-29.984,106.772,84.017,99.42c-3.243-0.197-6.53-0.306-9.863-0.309c-132.314-0.121-34.17,153.468,16.153,185.2
		c0,0-37.897,31.731,11.804,47.908c0,0-48.149,107.948,17.085,101.104c1.692-0.178,3.336-0.446,4.952-0.766
		c-36.767-9.431-11.09-78.749-3.929-96.305C121.103,334.086,120.027,331.614,117.841,330.783z"/>
	<path style="fill:#CCA75E;" d="M291.081,302.325v-96.828c0,0,50.95-95.086,156.714-106.078c-3.163-0.204-6.47-0.312-9.945-0.309
		c-110.898,0.101-172.263,111.392-172.263,111.392v101.837c54.581-2.146,61.986,114.138,127.22,120.982
		c5.822,0.61,10.726,0.293,14.856-0.766C346.975,420.508,339.594,314.516,291.081,302.325z"/>
</g>
<g>
	<ellipse style="fill:#FF5845;" cx="101.618" cy="168.836" rx="25.514" ry="25.552"/>
	<ellipse style="fill:#FF5845;" cx="157.688" cy="231.948" rx="16.907" ry="16.933"/>
	<ellipse style="fill:#FF5845;" cx="410.386" cy="168.836" rx="25.514" ry="25.552"/>
	<ellipse style="fill:#FF5845;" cx="354.306" cy="231.948" rx="16.907" ry="16.933"/>
	<ellipse style="fill:#FF5845;" cx="151.084" cy="311.517" rx="16.907" ry="16.933"/>
	<ellipse style="fill:#FF5845;" cx="360.92" cy="311.517" rx="16.907" ry="16.933"/>
</g>
<path style="fill:#2F3F4A;" d="M258.21,328.451h-4.416c-8.856,0-16.101-7.245-16.101-16.101v-101.86
	c0-8.856,7.245-16.101,16.101-16.101h4.416c8.856,0,16.101,7.245,16.101,16.101v101.86
	C274.311,321.206,267.065,328.451,258.21,328.451z"/>
<path style="fill:#232F38;" d="M257.501,312.352v-101.86c0-6.073,3.407-11.385,8.404-14.127c-2.29-1.256-4.913-1.974-7.697-1.974
	h-4.416c-8.856,0-16.101,7.245-16.101,16.101v101.86c0,8.856,7.245,16.101,16.101,16.101h4.416c2.784,0,5.406-0.718,7.697-1.974
	C260.91,323.737,257.501,318.424,257.501,312.352z"/>
<ellipse style="fill:#2F3F4A;" cx="256.002" cy="174.552" rx="19.808" ry="19.837"/>
<path style="fill:#232F38;" d="M256.002,174.553c0-7.338,3.989-13.73,9.905-17.161c-2.916-1.692-6.292-2.676-9.905-2.676
	c-10.94,0-19.809,8.882-19.809,19.837c0,10.956,8.869,19.837,19.809,19.837c3.612,0,6.988-0.984,9.905-2.676
	C259.991,188.284,256.002,181.891,256.002,174.553z"/>
<path d="M101.611,135.112c-18.39,0-33.352,15.02-33.352,33.482c0,18.462,14.962,33.482,33.352,33.482s33.352-15.019,33.352-33.482
	C134.963,150.132,120.001,135.112,101.611,135.112z M101.611,186.359c-9.748,0-17.679-7.969-17.679-17.764
	c0-9.796,7.93-17.764,17.679-17.764s17.679,7.969,17.679,17.764C119.29,178.39,111.359,186.359,101.611,186.359z"/>
<path d="M132.948,231.881c0,13.697,11.101,24.838,24.745,24.838s24.744-11.143,24.744-24.838c0-13.697-11.101-24.839-24.744-24.839
	C144.047,207.042,132.948,218.184,132.948,231.881z M166.763,231.881c0,5.029-4.07,9.121-9.071,9.121
	c-5.002,0-9.071-4.093-9.071-9.121c0-5.029,4.07-9.121,9.071-9.121C162.694,222.759,166.763,226.851,166.763,231.881z"/>
<path d="M410.393,202.076c18.39,0,33.352-15.019,33.352-33.482c0-18.461-14.962-33.482-33.352-33.482
	c-18.39,0-33.352,15.02-33.352,33.482C377.041,187.056,392.003,202.076,410.393,202.076z M410.393,150.829
	c9.748,0,17.679,7.969,17.679,17.764c0,9.795-7.93,17.764-17.679,17.764c-9.749,0-17.679-7.969-17.679-17.764
	C392.714,158.799,400.645,150.829,410.393,150.829z"/>
<path d="M354.312,207.042c-13.644,0-24.744,11.143-24.744,24.839c0,13.697,11.101,24.838,24.744,24.838
	c13.644,0,24.745-11.143,24.745-24.838C379.057,218.184,367.957,207.042,354.312,207.042z M354.312,241.002
	c-5.002,0-9.071-4.093-9.071-9.121c0-5.029,4.07-9.121,9.071-9.121c5.002,0,9.071,4.092,9.071,9.121
	S359.314,241.002,354.312,241.002z"/>
<path d="M151.084,286.836c-13.644,0-24.745,11.143-24.745,24.838c0,13.697,11.101,24.839,24.745,24.839
	c13.644,0,24.745-11.143,24.745-24.839C175.828,297.979,164.728,286.836,151.084,286.836z M151.084,320.798
	c-5.002,0-9.071-4.093-9.071-9.122c0-5.029,4.07-9.121,9.071-9.121c5.001,0,9.071,4.093,9.071,9.121
	C160.155,316.705,156.085,320.798,151.084,320.798z"/>
<path d="M360.92,286.836c-13.644,0-24.745,11.143-24.745,24.838c0,13.697,11.101,24.839,24.745,24.839s24.745-11.143,24.745-24.839
	C385.665,297.979,374.564,286.836,360.92,286.836z M360.92,320.798c-5.002,0-9.071-4.093-9.071-9.122
	c0-5.029,4.07-9.121,9.071-9.121s9.071,4.093,9.071,9.121C369.992,316.705,365.922,320.798,360.92,320.798z"/>
<path d="M509.684,130.291c-9.416-32.616-44.144-39.48-71.687-39.48c-0.052,0-0.104,0-0.157,0
	c-40.968,0.038-79.895,14.457-115.699,42.86c-15.742,12.488-28.663,25.997-38.629,37.93c-0.741-7.595-4.545-14.299-10.152-18.853
	c0.18-4.258,0.753-9.726,2.214-15.817c1.012-4.22-1.579-8.464-5.788-9.478c-4.204-1.013-8.44,1.583-9.452,5.802
	c-1.167,4.865-1.858,9.405-2.251,13.405c-0.689-0.052-1.381-0.087-2.084-0.087c-0.714,0-1.418,0.036-2.118,0.089
	c-2.076-20.174-12.058-56.658-55.409-75.973c-3.952-1.762-8.586,0.023-10.344,3.989c-1.758,3.966,0.024,8.611,3.98,10.373
	c39.191,17.463,45.852,50.656,46.533,67.695c-5.611,4.557-9.418,11.267-10.154,18.87c-7.88-9.436-17.647-19.918-29.193-30.061
	c-3.254-2.86-8.207-2.533-11.059,0.732s-2.524,8.23,0.731,11.091c20.178,17.726,34.61,36.561,42.573,48.153
	c-1.084,2.736-1.686,5.714-1.686,8.833v96.962c-21.212,7.885-34.592,31.536-48.682,56.459c-16.432,29.067-33.423,59.125-62.8,62.218
	c-15.203,1.592-19.53-4.367-20.951-6.327c-11.505-15.885,1.158-59.982,11.843-84.044c0.905-2.034,0.906-4.357,0.004-6.394
	c-0.903-2.035-2.624-3.591-4.735-4.281c-11.861-3.871-18.982-9.009-20.052-14.465c-1.49-7.601,7.574-17.297,10.85-20.081
	c1.919-1.612,2.955-4.049,2.787-6.554c-0.168-2.505-1.52-4.778-3.638-6.118C61.508,256.891,5.007,177.501,17.375,134.662
	c5.39-18.668,24.437-28.134,56.618-28.134c0.051,0,0.104,0,0.155,0c28.303,0.026,55.863,7.752,81.915,22.961
	c3.74,2.183,8.538,0.913,10.715-2.838s0.911-8.562-2.83-10.746c-28.472-16.622-58.68-25.065-89.786-25.094c-0.054,0-0.109,0-0.164,0
	c-49.818,0-66.479,21.464-71.68,39.48c-9.016,31.236,10.339,70.733,22.68,91.498c15.399,25.91,35.564,49.856,53.346,63.734
	c-0.715,0.872-1.443,1.811-2.164,2.81c-6.164,8.542-8.617,17.23-7.093,25.125c1.898,9.825,9.509,17.69,22.66,23.448
	c-7.719,19.506-24.202,68.254-7.013,92c6.301,8.702,15.935,13.089,28.7,13.089c2.107,0,4.301-0.119,6.578-0.359
	c37.399-3.938,57.269-39.086,74.8-70.098c11.831-20.928,23.095-40.841,37.634-48.192c3.956,7.805,12.037,13.17,21.349,13.17h4.417
	c9.308,0,17.386-5.359,21.344-13.158c12.829,6.519,23.068,22.778,32.513,39.17c1.452,2.52,4.086,3.929,6.793,3.929
	c1.33,0,2.679-0.34,3.913-1.055c3.748-2.171,5.031-6.979,2.865-10.736c-11.612-20.154-24.514-40.195-43.492-47.33v-96.97
	c0-3.119-0.603-6.098-1.688-8.836c9.336-13.607,26.696-35.931,51.406-55.532c32.973-26.155,68.633-39.433,105.989-39.468
	c0.053,0,0.102,0,0.156,0c32.177,0,51.229,9.467,56.618,28.134c12.367,42.841-44.133,122.229-77.104,143.078
	c-2.118,1.34-3.47,3.613-3.638,6.118c-0.168,2.506,0.867,4.941,2.787,6.554c2.677,2.248,12.364,12.241,10.854,20.057
	c-1.055,5.466-8.178,10.611-20.056,14.489c-2.112,0.69-3.832,2.245-4.734,4.28c-0.903,2.034-0.902,4.358,0.001,6.393
	c0.072,0.162,7.232,16.38,12.062,35.314c5.892,23.096,5.815,40.402-0.218,48.732c-1.42,1.96-5.747,7.925-20.951,6.327
	c-18.031-1.898-32.532-13.259-48.491-37.99c-2.351-3.644-7.205-4.685-10.837-2.329c-3.634,2.357-4.674,7.223-2.323,10.867
	c12.496,19.365,30.609,41.99,60.014,45.083c2.278,0.239,4.469,0.359,6.577,0.359c12.763,0,22.4-4.388,28.697-13.088
	c17.189-23.746,0.705-72.494-7.013-92c13.151-5.757,20.762-13.622,22.66-23.448c1.525-7.894-0.928-16.583-7.093-25.125
	c-0.721-0.999-1.449-1.937-2.164-2.81c17.781-13.877,37.948-37.823,53.346-63.734C499.345,201.025,518.701,161.527,509.684,130.291z
	 M267.974,174.325c0,6.635-5.371,12.034-11.972,12.034c-6.602,0-11.972-5.399-11.972-12.034c0-6.636,5.371-12.035,11.972-12.035
	C262.604,162.29,267.974,167.689,267.974,174.325z M258.21,320.798h-4.417c-4.557,0-8.264-3.718-8.264-8.288V210.363
	c0-1.661,0.494-3.207,1.337-4.506c0.135-0.174,0.264-0.352,0.383-0.537c1.512-1.97,3.88-3.245,6.544-3.245h4.417
	c2.664,0,5.032,1.277,6.544,3.247c0.118,0.184,0.248,0.36,0.382,0.535c0.842,1.299,1.337,2.844,1.337,4.506v102.146
	C266.474,317.08,262.767,320.798,258.21,320.798z"/>
<path d="M287.097,106.528c2.111,0,4.214-0.85,5.759-2.527c7.15-7.765,16.249-14.14,27.041-18.95
	c3.955-1.764,5.736-6.406,3.979-10.373c-1.758-3.966-6.391-5.751-10.344-3.989c-12.753,5.684-23.583,13.304-32.19,22.648
	c-2.936,3.188-2.74,8.161,0.44,11.105C283.289,105.838,285.195,106.528,287.097,106.528z"/>
<g>
</g>
<g>
</g>
<g>
</g>
<g>
</g>
<g>
</g>
<g>
</g>
<g>
</g>
<g>
</g>
<g>
</g>
<g>
</g>
<g>
</g>
<g>
</g>
<g>
</g>
<g>
</g>
<g>
</g>
</svg>
