<?xml version="1.0" encoding="iso-8859-1"?>
<!-- Generator: Adobe Illustrator 19.0.0, SVG Export Plug-In . SVG Version: 6.00 Build 0)  -->
<svg version="1.1" id="Layer_1" xmlns="http://www.w3.org/2000/svg" xmlns:xlink="http://www.w3.org/1999/xlink" x="0px" y="0px"
	 viewBox="0 0 512 512" style="enable-background:new 0 0 512 512;" xml:space="preserve">
<g>
	<path style="fill:#89AD5C;" d="M309.662,199.832l19.757,5.342c4.5,1.216,8.704-2.741,7.776-7.321l-4.552-22.481
		c-1.028-5.077-7.395-6.798-10.828-2.928l-15.206,17.139C303.512,193.076,305.161,198.616,309.662,199.832z"/>
	<path style="fill:#89AD5C;" d="M274.96,195.66l22.335,2.7c5.087,0.615,9.04-4.353,7.314-9.19l-8.475-23.745
		c-1.914-5.362-9.112-6.232-12.241-1.48l-13.861,21.045C267.21,189.277,269.872,195.045,274.96,195.66z"/>
	<path style="fill:#89AD5C;" d="M239.468,193.083l22.497,0.061c5.124,0.014,8.471-5.384,6.191-9.985l-11.189-22.588
		c-2.527-5.1-9.776-5.12-12.33-0.033l-11.307,22.528C231.026,187.654,234.344,193.07,239.468,193.083z"/>
	<path style="fill:#89AD5C;" d="M203.721,196.485l22.376-2.331c5.096-0.531,7.853-6.254,5.101-10.587l-13.514-21.271
		c-3.051-4.803-10.262-4.052-12.264,1.278l-8.863,23.602C194.752,191.983,198.625,197.016,203.721,196.485z"/>
	<path style="fill:#89AD5C;" d="M169.401,201.892l20.969-3.56c4.776-0.811,7.031-6.378,4.172-10.299l-14.035-19.245
		c-3.169-4.346-9.927-3.198-11.493,1.952l-6.934,22.806C160.668,198.19,164.625,202.703,169.401,201.892z"/>
	<path style="fill:#89AD5C;" d="M137.404,207.835l19.589-3.757c4.462-0.856,6.465-6.12,3.706-9.738l-13.542-17.763
		c-3.058-4.011-9.371-2.8-10.736,2.059l-6.047,21.521C129.142,204.54,132.942,208.691,137.404,207.835z"/>
</g>
<path id="SVGCleanerId_0" style="fill:#9EC767;" d="M512,245.251c0,11.165-9.022,20.2-20.146,20.2H71.13
	c-16.297,0-29.739,13.381-29.524,29.733c0.13,9.878,3.869,18.978,10.025,25.906c6.262,7.058,15.026,11.889,25.028,13.068
	l113.858,13.38c4.84,0.562,4.43,7.728-0.442,7.728H64.2c-35.452,0-64.2-28.825-64.2-64.372v-5.479
	c0-40.638,32.855-73.603,73.394-73.603l27.411-2.605c0,0,66.28-20.697,143.672-20.697c51.836,0,93.464,10.149,115.313,16.86
	c6.532-7.09,15.877-11.521,26.247-11.521c0.97,0,1.929,0.043,2.878,0.119c4.009-6.972,11.771-11.5,20.523-10.776
	c10.455,0.865,18.917,9.425,19.683,19.919c0.56,7.609-2.792,14.428-8.245,18.697c-0.302,0.249-0.614,0.487-0.949,0.702h57.43
	c0.712-5.144,5.11-9.1,10.434-9.1c5.81,0,10.52,4.723,10.52,10.56c0,0.14,0,0.271-0.01,0.411
	C506.363,227.85,512,235.892,512,245.251z"/>
<g>
	<path id="SVGCleanerId_0_1_" style="fill:#9EC767;" d="M512,245.251c0,11.165-9.022,20.2-20.146,20.2H71.13
		c-16.297,0-29.739,13.381-29.524,29.733c0.13,9.878,3.869,18.978,10.025,25.906c6.262,7.058,15.026,11.889,25.028,13.068
		l113.858,13.38c4.84,0.562,4.43,7.728-0.442,7.728H64.2c-35.452,0-64.2-28.825-64.2-64.372v-5.479
		c0-40.638,32.855-73.603,73.394-73.603l27.411-2.605c0,0,66.28-20.697,143.672-20.697c51.836,0,93.464,10.149,115.313,16.86
		c6.532-7.09,15.877-11.521,26.247-11.521c0.97,0,1.929,0.043,2.878,0.119c4.009-6.972,11.771-11.5,20.523-10.776
		c10.455,0.865,18.917,9.425,19.683,19.919c0.56,7.609-2.792,14.428-8.245,18.697c-0.302,0.249-0.614,0.487-0.949,0.702h57.43
		c0.712-5.144,5.11-9.1,10.434-9.1c5.81,0,10.52,4.723,10.52,10.56c0,0.14,0,0.271-0.01,0.411
		C506.363,227.85,512,235.892,512,245.251z"/>
</g>
<g>
	<path style="fill:#89AD5C;" d="M16.348,293.149V287.1c0-33.74,23.794-62.682,50.253-74.963C29.249,215.577,0,247.072,0,285.414
		v5.479c0,31.72,22.896,58.067,53.014,63.378C34.185,341.883,16.348,319.15,16.348,293.149z"/>
	<path style="fill:#89AD5C;" d="M190.518,347.537L82.216,334.81c4.746,3.197,10.161,5.342,16.003,6.101l95.258,12.358
		C194.593,351.104,193.691,347.906,190.518,347.537z"/>
	<path style="fill:#89AD5C;" d="M142.282,232.966c0-2.383,1.93-4.315,4.311-4.315h43.626c10.285,0,18.623,8.36,18.623,18.673v18.13
		h-66.56L142.282,232.966L142.282,232.966z"/>
	<path style="fill:#89AD5C;" d="M321.172,232.966c0-2.383,1.93-4.315,4.311-4.315h43.626c10.285,0,18.623,8.36,18.623,18.673v18.13
		h-66.56V232.966z"/>
</g>
<ellipse style="fill:#5D753F;" cx="408.21" cy="204.058" rx="8.084" ry="8.093"/>
<path style="fill:#92B85F;" d="M228.709,288.807H139.88c-2.14,0-3.876-1.735-3.876-3.876v-16.309
	c0-8.182,6.632-14.814,14.814-14.814h50.69c17.162,0,31.075,13.913,31.075,31.075v0.047
	C232.585,287.071,230.849,288.807,228.709,288.807z"/>
<path style="fill:#89AD5C;" d="M157.563,284.929V268.63c0-8.186,6.629-14.822,14.806-14.822h-21.558
	c-8.177,0-14.806,6.635-14.806,14.822v16.299c0,2.141,1.735,3.877,3.873,3.877h21.558
	C159.297,288.807,157.563,287.07,157.563,284.929z"/>
<path style="fill:#92B85F;" d="M410.222,288.807h-88.829c-2.14,0-3.876-1.735-3.876-3.876v-16.309
	c0-8.182,6.632-14.814,14.814-14.814h50.69c17.162,0,31.075,13.913,31.075,31.075v0.047
	C414.097,287.071,412.362,288.807,410.222,288.807z"/>
<path style="fill:#89AD5C;" d="M339.442,284.929V268.63c0-8.186,6.629-14.822,14.806-14.822h-21.925
	c-8.177,0-14.806,6.635-14.806,14.822v16.299c0,2.141,1.735,3.877,3.873,3.877h21.925
	C341.177,288.807,339.442,287.07,339.442,284.929z"/>
<g>
</g>
<g>
</g>
<g>
</g>
<g>
</g>
<g>
</g>
<g>
</g>
<g>
</g>
<g>
</g>
<g>
</g>
<g>
</g>
<g>
</g>
<g>
</g>
<g>
</g>
<g>
</g>
<g>
</g>
</svg>
