<?xml version="1.0" encoding="iso-8859-1"?>
<!-- Generator: Adobe Illustrator 19.0.0, SVG Export Plug-In . SVG Version: 6.00 Build 0)  -->
<svg version="1.1" id="Layer_1" xmlns="http://www.w3.org/2000/svg" xmlns:xlink="http://www.w3.org/1999/xlink" x="0px" y="0px"
	 viewBox="0 0 512.002 512.002" style="enable-background:new 0 0 512.002 512.002;" xml:space="preserve">
<path style="fill:#91BED4;" d="M274.818,325.732l-34.088,64.064c-2.957,5.558-1.453,12.523,3.51,16.253l41.478,31.171
	c2.067,1.554,4.557,2.391,7.113,2.391h17.096c12.88,0,24.943,6.526,32.285,17.469l2.389,3.56c3.156,4.702-0.099,11.133-5.634,11.133
	h-54.803c-8.148,0-16.101-2.585-22.783-7.407l-43.303-31.247c-16.755-12.091-22.354-35.085-13.133-53.938l35.229-72.024
	L274.818,325.732z"/>
<path style="fill:#80A7BA;" d="M432.736,123.305h4.805c28.432,0,51.48-13.738,51.48-30.686l0,0c0-0.996-1.355-1.803-3.026-1.803
	h-53.259V123.305z"/>
<path style="fill:#91BED4;" d="M432.736,61.207h27.786c28.432,0,51.48,13.738,51.48,30.686l0,0c0,0.996-1.355,1.803-3.026,1.803
	h-76.239V61.207H432.736z"/>
<path style="fill:#3F5666;" d="M416.241,130.448v16.362l0.021-0.021v67.104c0,68.066-53.366,123.247-119.194,123.247H141.931
	L332.99,204.573v-83.912c0-13.382,3.196-25.954,8.826-37.013c11.019-21.623,31.399-37.349,55.58-41.432
	c4.074-1.297,8.398-1.987,12.869-1.987c24.212,0,43.829,20.295,43.829,45.319C454.095,108.49,437.623,127.445,416.241,130.448z"/>
<path style="fill:#2F3F4A;" d="M354.907,202.314v-81.651c0-13.381,3.196-25.954,8.826-37.014
	c11.021-21.623,31.399-37.348,55.58-41.431c0.634-0.202,1.277-0.383,1.923-0.555c-3.506-0.934-7.182-1.432-10.97-1.432
	c-4.471,0-8.795,0.691-12.869,1.987c-24.181,4.083-44.561,19.808-55.58,41.431c-5.63,11.059-8.826,23.632-8.826,37.014v83.912
	L141.932,337.141h21.917l189.204-131.28C354.215,205.055,354.907,203.729,354.907,202.314z"/>
<ellipse style="fill:#232F38;" cx="407.814" cy="77.647" rx="8.084" ry="8.092"/>
<path style="fill:#354A57;" d="M334.493,261.558c-0.485,0.367-0.992,0.733-1.509,1.1L188.988,365.689
	c-9.808,7.023-23.26,4.488-30.051-5.654l-3.212-4.812c-2.9-4.336-7.028-7.282-11.554-8.684c-6.069-1.878-12.88-0.993-18.497,3.021
	l-9.55,6.829c-4.905,3.517-10.735,4.639-16.157,3.615c-0.894-0.172-1.778-0.399-2.652-0.68c-4.484-1.467-8.547-4.455-11.394-8.814
	c-2.76-4.217-6.726-7.067-11.124-8.448c-6.154-1.941-13.15-1.003-18.831,3.065l-15.77,11.273c-9.808,7.024-23.26,4.499-30.041-5.631
	l-9.41-14.069c-1.316-1.962-0.841-4.65,1.056-6.008L256.529,148.42c0.517-0.367,1.024-0.723,1.531-1.068
	c4.678-3.161,9.604-5.631,14.67-7.455c0.572-0.205,1.142-0.399,1.714-0.583c0.183-0.065,0.377-0.118,0.56-0.183
	c0.592-0.194,1.186-0.367,1.778-0.539c0.194-0.053,0.388-0.108,0.582-0.162c0.959-0.27,1.93-0.517,2.9-0.734
	c0.56-0.118,1.121-0.248,1.681-0.356c0.711-0.142,1.423-0.27,2.137-0.387c0.344-0.057,0.688-0.107,1.03-0.157
	c0.365-0.054,0.728-0.109,1.093-0.157c0.413-0.053,0.826-0.103,1.238-0.149c0.282-0.031,0.565-0.061,0.848-0.089
	c0.464-0.046,0.927-0.09,1.391-0.125c0.189-0.015,0.378-0.025,0.567-0.039c2.477-0.17,4.956-0.199,7.426-0.087
	c0.043,0.002,0.085,0.004,0.128,0.006c0.632,0.029,1.264,0.07,1.895,0.118c0.024,0.001,0.048,0.003,0.072,0.005
	c19.52,1.519,38.233,11.798,50.231,29.725C370.753,197.019,363.747,239.375,334.493,261.558z"/>
<g>
	<path style="fill:#2F3F4A;" d="M313.312,138.782c-6.252,1.867-12.342,4.704-18.065,8.567c-0.507,0.346-1.014,0.702-1.531,1.068
		L38.989,330.69c-1.898,1.359-2.371,4.046-1.056,6.008l5.142,7.693l173.68-120.529c3.664-2.546,8.709-1.629,11.254,2.039
		c2.544,3.679,1.628,8.718-2.038,11.264L74.796,342.061c-6.154-1.941-13.15-1.003-18.831,3.065l-15.77,11.273
		c-9.808,7.024-23.26,4.499-30.041-5.631l-9.41-14.069c-1.316-1.962-0.841-4.65,1.056-6.008l254.728-182.273
		c0.517-0.367,1.024-0.723,1.531-1.068c4.678-3.161,9.604-5.631,14.67-7.455c0.572-0.205,1.142-0.399,1.714-0.583
		c0.183-0.065,0.377-0.118,0.56-0.183c0.592-0.183,1.186-0.367,1.778-0.539c0.194-0.053,0.388-0.108,0.582-0.162
		c0.959-0.27,1.93-0.507,2.9-0.734c0.56-0.118,1.121-0.248,1.681-0.356C292.422,135.245,303.18,135.784,313.312,138.782z"/>
	<path style="fill:#2F3F4A;" d="M294.438,242.408l-150.269,104.13c-6.069-1.878-12.88-0.993-18.497,3.021l-9.55,6.829
		c-4.905,3.517-10.735,4.639-16.157,3.615c-0.894-0.172-1.778-0.399-2.652-0.68l187.921-130.218
		c3.664-2.546,8.709-1.63,11.242,2.039C299.019,234.823,298.104,239.861,294.438,242.408z"/>
</g>
<g>
</g>
<g>
</g>
<g>
</g>
<g>
</g>
<g>
</g>
<g>
</g>
<g>
</g>
<g>
</g>
<g>
</g>
<g>
</g>
<g>
</g>
<g>
</g>
<g>
</g>
<g>
</g>
<g>
</g>
</svg>
