<svg id="Layer_1" enable-background="new 0 0 512.01 512.01" height="512" viewBox="0 0 512.01 512.01" width="512" xmlns="http://www.w3.org/2000/svg"><g><path d="m512.005 456c0 10.882-10.661 18.632-21.06 15.18-47.228-15.743-34.124-11.374-60.05-20.02l-33.32 53.32c-5.754 9.202-18.876 10.149-25.86 1.76l-29.62-35.53-43.68 37.44c-6.35 5.44-15.81 5.08-21.72-.84l-38.73-38.72-61.08 40.72c-9.767 6.51-23.045.629-24.72-11.05l-5.68-39.79-79.85 13.31c-15.636 2.617-25.157-16.841-13.44-27.57.22-.21 23.29-21.6 45.95-55.77 20.46-30.85 44.86-78.88 44.86-132.44 0-8.84-79.96-126.86-79.96-126.86-.12-1.67-2.54-41.19 30.21-76.36 32.61-35.02 87.03-52.78 161.75-52.78h208c14.727 0 21.632 18.32 10.54 28.04l-31.96 27.96h5.42c8.3 0 15.42 6.31 16.13 14.58.72 8.25-4.78 15.64-12.91 17.1-3.28.76-27.22 7.52-27.22 40.32 0 43.058 88 221.402 88 328z" fill="#e2e0e0"/><path d="m512.005 456c0 10.882-10.661 18.632-21.06 15.18l-39.63-13.21c-.13-135.43-50.055-290.784-82.31-364.97-30-69-59-93-113-93h208c14.727 0 21.632 18.32 10.54 28.04l-31.96 27.96h5.42c8.3 0 15.42 6.31 16.13 14.58.72 8.25-4.78 15.64-12.91 17.1-3.28.76-27.22 7.52-27.22 40.32 0 43.058 88 221.402 88 328z" fill="#cecccc"/><path d="m228.045 202.54-56 64c-4.156 4.748-10.848 6.712-17.1 4.64-18.51-6.15-72.75-19.62-101-8.32-14.476 5.744-27.75-10.057-19.87-23.12 4.62-7.67 10.72-14.8 18.12-21.2 22.87-19.8 62.16-42.54 163.81-42.54 13.749 0 21.059 16.235 12.04 26.54z" fill="#e1c3a7"/><circle cx="216.005" cy="120" fill="#a18b76" r="24"/><path d="m231.885 193.96c-.99 8.02-7.8 14.04-15.88 14.04-91.07 0-124.19 18.57-142.88 34.75-4.85 4.19-8.77 8.74-11.65 13.51-6.89 11.44-5.74 20.79-5.73 20.87 2.526 13.883-12.92 23.966-24.62 16.18-3.18-2.12-31.12-22.33-31.12-77.31 0-42.45 21.04-75.41 60.84-95.31 28.48-14.24 56.74-16.55 57.93-16.64 9.269-.731 17.23 6.626 17.23 15.95 0 26.83 56.51 49.64 83.88 56.48 7.84 1.96 12.99 9.46 12 17.48z" fill="#f3d4b7"/></g></svg>