<?xml version="1.0" encoding="iso-8859-1"?>
<!-- Generator: Adobe Illustrator 19.0.0, SVG Export Plug-In . SVG Version: 6.00 Build 0)  -->
<svg version="1.1" id="Layer_1" xmlns="http://www.w3.org/2000/svg" xmlns:xlink="http://www.w3.org/1999/xlink" x="0px" y="0px"
	 viewBox="0 0 512 512" style="enable-background:new 0 0 512 512;" xml:space="preserve">
<path style="fill:#B53C2F;" d="M211.436,324.539l38.517,44.6c3.369,3.901,3.027,9.772-0.769,13.257l-62.343,57.206l12.335,26.487
	l69.192-63.164c15.227-13.9,16.267-37.53,2.32-52.715l-28.606-31.144L211.436,324.539z"/>
<path style="fill:#3F5666;" d="M477.462,20.718h-34.018v34.5h17.372c9.192,0,16.644,7.444,16.644,16.625v11.585
	c0,3.186,2.585,5.768,5.775,5.768l0,0c15.886,0,28.764-12.864,28.764-28.732v-5.247l0,0C512,36.165,496.537,20.718,477.462,20.718
	L477.462,20.718z"/>
<g>
	<path style="fill:#D44637;" d="M145.106,323.192H4.311C1.93,323.192,0,321.261,0,318.88l0,0c0-17.114,13.871-30.988,30.981-30.988
		h114.125V323.192z"/>
	<path style="fill:#D44637;" d="M342.138,300.847v22.345H88.246c-6.17,0-11.762-2.499-15.816-6.547
		c-4.053-4.048-6.555-9.635-6.555-15.798c0-76.207,61.845-137.983,138.126-137.983c29.841,0,57.464,9.453,80.05,25.511
		C319.203,213.389,342.138,254.45,342.138,300.847z"/>
</g>
<path style="fill:#993328;" d="M87.434,300.847c0-72.573,56.091-132.058,127.321-137.565c-3.55-0.273-7.135-0.418-10.753-0.418
	c-76.28,0-138.126,61.776-138.126,137.983c0,6.163,2.501,11.749,6.555,15.798c4.053,4.048,9.645,6.547,15.816,6.547h21.558
	c-6.17,0-11.762-2.499-15.816-6.547C89.935,312.596,87.434,307.01,87.434,300.847z"/>
<path style="fill:#FF5845;" d="M313.736,323.188h25.184c43.296,0,78.396-35.059,78.396-78.309V80.944
	c0-4.734,3.837-8.572,8.57-8.572h0.723c18.428,0,33.366-14.922,33.366-33.329V26.788c0-2.089-1.494-3.879-3.549-4.244
	c-8.541-1.521-30.356-5.019-41.537-3.244c-14.093,2.236-45.033,7.44-45.033,108.648v108.375c0,18.28-14.835,33.099-33.136,33.099
	h-22.985v53.766H313.736z"/>
<g>
	<path style="fill:#B53C2F;" d="M391.235,236.322V127.947c0-98.146,29.095-106.01,43.707-108.435
		c-7.382-0.723-14.864-1.038-20.053-0.214c-14.093,2.236-45.033,7.44-45.033,108.648v108.375c0,18.28-14.835,33.099-33.136,33.099
		h21.379C376.399,269.421,391.235,254.602,391.235,236.322z"/>
	<rect x="313.731" y="269.417" style="fill:#B53C2F;" width="21.379" height="53.77"/>
</g>
<path style="fill:#FF5845;" d="M176.344,302.837v185.816c0,2.507,2.034,4.539,4.544,4.539h46.239c2.51,0,4.544-2.032,4.544-4.539
	v-0.237c0-12.039-9.771-21.799-21.823-21.799l0,0c-3.226,0-5.841-2.612-5.841-5.834V302.837H176.344z"/>
<circle style="fill:#451712;" cx="419.61" cy="44.863" r="8.084"/>
<path style="fill:#FF5845;" d="M342.134,300.851c0,21.175-17.181,38.339-38.383,38.339H115.82
	c-12.698,0-22.992-10.286-22.992-22.965v-2.501c0-12.442,5.885-23.503,15.015-30.565c6.543-5.078,14.756-8.086,23.682-8.086h13.582
	c0.862,0,1.671-0.248,2.34-0.679c0.432-0.281,0.819-0.636,1.111-1.046c0.032-0.032,0.043-0.053,0.065-0.075
	c0.097-0.13,0.183-0.259,0.248-0.399c0.172-0.28,0.302-0.592,0.399-0.916c0.022-0.075,0.043-0.15,0.065-0.227
	c0.01-0.075,0.032-0.15,0.043-0.237c0.022-0.087,0.032-0.172,0.032-0.27c0.022-0.162,0.032-0.312,0.032-0.474
	c0-1.273,0.065-2.523,0.183-3.763c1.046-10.889,6.629-20.453,14.832-26.792c6.543-5.078,14.756-8.086,23.671-8.086h7.556
	c2.382,0,4.323-1.94,4.323-4.334v-0.754c0-1.003,0.043-2.006,0.108-2.998c1.541-19.935,18.227-35.644,38.589-35.644h45.348
	C319.208,213.392,342.134,254.447,342.134,300.851z"/>
<g>
	<path style="fill:#B53C2F;" d="M290.729,232.109c0,4.464-3.622,8.086-8.084,8.086h-98.584c-7.362,6.674-12.201,16.161-12.87,26.792
		h67.304c4.463,0,8.084,3.623,8.084,8.086c0,4.464-3.622,8.086-8.084,8.086h-110.16c-8.451,7.213-13.829,18.027-13.829,30.123v2.544
		c0,12.906,10.294,23.363,22.992,23.363h-21.676c-12.698,0-22.992-10.286-22.992-22.965v-2.501c0-12.442,5.885-23.503,15.015-30.565
		c6.543-5.078,14.756-8.086,23.682-8.086h13.582c0.862,0,1.671-0.248,2.34-0.679c0.108-0.065,0.205-0.14,0.302-0.227
		c0.312-0.227,0.592-0.507,0.809-0.819c0.032-0.032,0.043-0.053,0.065-0.075c0.097-0.13,0.183-0.259,0.248-0.399
		c0.172-0.28,0.302-0.592,0.399-0.916c0.022-0.075,0.043-0.15,0.065-0.227c0.01-0.075,0.032-0.15,0.043-0.237
		c0.022-0.087,0.032-0.172,0.032-0.27c0.022-0.162,0.032-0.312,0.032-0.474c0-1.273,0.065-2.523,0.183-3.763
		c1.046-10.889,6.629-20.453,14.832-26.792c6.543-5.078,14.756-8.086,23.671-8.086h7.556c2.382,0,4.323-1.94,4.323-4.334v-0.754
		c0-1.003,0.043-2.006,0.108-2.998c1.541-19.935,18.227-35.644,38.589-35.644h7.75c-14.186,5.563-24.339,19.364-24.748,35.644
		h60.944C287.108,224.022,290.729,227.634,290.729,232.109z"/>
	<path style="fill:#B53C2F;" d="M147.748,274.167c-0.097,0.087-0.194,0.162-0.302,0.227c-0.01,0-0.01,0-0.022,0
		C147.531,274.329,147.639,274.253,147.748,274.167z"/>
</g>
<g>
</g>
<g>
</g>
<g>
</g>
<g>
</g>
<g>
</g>
<g>
</g>
<g>
</g>
<g>
</g>
<g>
</g>
<g>
</g>
<g>
</g>
<g>
</g>
<g>
</g>
<g>
</g>
<g>
</g>
</svg>
