<?xml version="1.0" encoding="iso-8859-1"?>
<!-- Generator: Adobe Illustrator 19.0.0, SVG Export Plug-In . SVG Version: 6.00 Build 0)  -->
<svg version="1.1" id="Layer_1" xmlns="http://www.w3.org/2000/svg" xmlns:xlink="http://www.w3.org/1999/xlink" x="0px" y="0px"
	 viewBox="0 0 512.002 512.002" style="enable-background:new 0 0 512.002 512.002;" xml:space="preserve">
<path style="fill:#CCA75E;" d="M310.443,489.583l-2.302,12.102c-0.272,1.441-1.444,2.476-2.802,2.476H278.21
	c-1.866,0-3.325-1.752-3.146-3.777l1.516-19.096l9.531-120.173l35.844-17.226l-24.881,132.485c-0.071,0.381-0.078,0.763-0.015,1.137
	c0.136,0.911,0.644,1.721,1.409,2.196l10.582,6.526C310.129,486.904,310.693,488.252,310.443,489.583z"/>
<path style="fill:#3F5666;" d="M310.443,489.583l-2.302,12.102c-0.272,1.441-1.444,2.476-2.802,2.476H278.21
	c-1.866,0-3.325-1.752-3.146-3.777l1.516-19.096l20.48-3.777c0.136,0.911,0.644,1.721,1.409,2.196l10.582,6.526
	C310.129,486.904,310.693,488.252,310.443,489.583z"/>
<path style="fill:#CCA75E;" d="M148.617,432.127v42.154c0,0.717,0.241,1.402,0.677,1.939c0.217,0.28,0.483,0.514,0.793,0.708
	l12.624,7.811c0.747,0.467,1.267,1.231,1.423,2.095l2.482,13.652c0.35,1.915-1.12,3.676-3.057,3.676h-30.608
	c-1.719,0-3.112-1.394-3.112-3.115V415.36l9.653-52.544l61.839,11.682l-33.922,56.071L148.617,432.127z"/>
<g>
	<path style="fill:#3F5666;" d="M163.559,504.164h-30.608c-1.719,0-3.112-1.394-3.112-3.115v-21.463l19.454-3.365
		c0.217,0.28,0.483,0.514,0.793,0.708l12.624,7.811c0.747,0.467,1.267,1.231,1.423,2.095l2.482,13.652
		C166.966,502.404,165.496,504.164,163.559,504.164z"/>
	<path style="fill:#3F5666;" d="M120.743,301.303c-10.753-0.353-40.328,2.008-55.668,36.349c-0.904,2.023,0.399,4.347,2.599,4.608
		c8.526,1.011,27.868,1.866,39.107-8.969c10.448-10.073,15.13-21.796,16.968-27.756
		C124.383,303.478,122.893,301.374,120.743,301.303z"/>
</g>
<path style="fill:#FBD476;" d="M447.217,48.982v14.81c0,11.803-9.771,16.751-22.262,18.731c-12.483,1.981-38.968-6.806-38.968-6.806
	s-28.996,264.337-28.011,272.09l-6.541,125.256c0.048,0.38,0.162,0.752,0.331,1.075c0.21,0.404,0.509,0.761,0.871,1.035
	l16.142,12.313c0.977,0.751,1.421,2.004,1.139,3.202l-2.656,11.083c-0.331,1.398-1.575,2.393-3.028,2.393h-28.996
	c-1.583,0-2.98-1.092-3.343-2.652l-4.36-21.124l-1.252-84.577c-0.355-1.512-1.679-2.594-3.221-2.635l-155.001-5.48
	c-0.905-0.032-1.793,0.299-2.463,0.93l-45.428,42.232c-0.638,0.59-1.477,0.922-2.35,0.922h-14.987c-1.906,0-3.448,1.544-3.448,3.444
	v42.232c0,0.557,0.137,1.099,0.396,1.584c0.226,0.452,0.565,0.857,0.985,1.172l7.969,5.982c0.63,0.476,1.09,1.164,1.276,1.916
	l2.939,11.779c0.541,2.174-1.098,4.277-3.335,4.277H81.315c-1.898,0-3.431-1.544-3.431-3.444v-88.296
	c0-1.342,0.767-2.555,1.971-3.12l9.819-11.068c1.203-0.574,1.978-1.787,1.978-3.121v-46.928c0-28.061,20.84-51.746,48.642-55.279
	l57.12,0.404c2.859-16.427,17.175-28.918,34.406-28.918h65.978c9.23-54.374,28.729-169.348,37.426-221.354
	c1.776-10.631,10.965-18.415,21.729-18.415h19.727c5.959,0,11.66,2.377,15.858,6.605l4.853,4.891
	c4.191,4.228,9.899,6.596,15.843,6.596h27.728C444.416,42.717,447.217,45.521,447.217,48.982z"/>
<g>
	<path style="fill:#CCA75E;" d="M356.795,43.04c1.722-10.308,10.421-17.919,20.76-18.372c-0.294-0.011-0.583-0.044-0.878-0.044
		h-19.727c-10.763,0-19.952,7.784-21.729,18.415c-8.697,52.006-28.197,166.98-37.426,221.354h12.748
		c5.096,0,9.448-3.669,10.301-8.694C330.542,198.557,348.538,92.417,356.795,43.04z"/>
	<path style="fill:#CCA75E;" d="M211.061,293.255c4.332,0.03,8.221-2.621,9.801-6.654c5.091-13.001,17.736-22.207,32.53-22.207
		h-21.573c-17.178,0-31.456,12.413-34.376,28.765L211.061,293.255z"/>
	<path style="fill:#CCA75E;" d="M407.56,75.716c0,0-0.212,1.939-0.601,5.487c6.541,1.276,13.271,2.069,17.996,1.32
		c1.762-0.279,3.461-0.626,5.094-1.033C418.775,79.436,407.56,75.716,407.56,75.716z"/>
	<path style="fill:#CCA75E;" d="M344.618,501.512l-4.36-21.124l2.193-82.282c-0.355-1.512-1.679-2.594-3.221-2.635l-13.269-0.486
		c0.138,0.258,0.254,0.531,0.323,0.827l1.252,84.577l4.36,21.124c0.364,1.56,1.761,2.652,3.343,2.652h12.723
		C346.379,504.164,344.982,503.072,344.618,501.512z"/>
	<path style="fill:#CCA75E;" d="M99.456,500.72V478.02c-0.032-0.187-0.07-0.374-0.07-0.567v-42.232c0-0.238,0.024-0.469,0.07-0.694
		v-22.104c0-1.343,0.767-2.555,1.971-3.12l9.819-11.068c1.203-0.574,1.978-1.787,1.978-3.121v-46.928
		c0-27.733,20.361-51.179,47.675-55.134l-20.605-0.146c-27.801,3.533-48.642,27.22-48.642,55.28v46.928
		c0,1.334-0.775,2.547-1.978,3.121l-9.819,11.068c-1.203,0.565-1.971,1.778-1.971,3.12v88.295c0,1.9,1.535,3.444,3.431,3.444h21.573
		C100.991,504.164,99.456,502.619,99.456,500.72z"/>
</g>
<g>
	<path style="fill:#3F5666;" d="M109.616,504.161H81.317c-1.906,0-3.438-1.542-3.438-3.45v-18.41l21.904-3.263
		c0.226,0.451,0.56,0.857,0.98,1.168l7.973,5.988c0.63,0.475,1.089,1.161,1.276,1.915l2.94,11.775
		C113.49,502.059,111.856,504.161,109.616,504.161z"/>
	<path style="fill:#3F5666;" d="M369.916,490.689l-2.653,11.082c-0.334,1.402-1.579,2.391-3.026,2.391h-28.999
		c-1.587,0-2.979-1.091-3.345-2.648l-4.356-21.128l24.23-6.245c0.21,0.405,0.506,0.755,0.871,1.035l16.141,12.312
		C369.76,488.236,370.203,489.49,369.916,490.689z"/>
</g>
<path style="fill:#CCA75E;" d="M361.669,32.187c-2.282-4.599-10.655-19.341-26.26-24.202c-2.227-0.694-4.442,1.138-4.172,3.457
	c1.026,8.835,4.445,28.021,15.109,34.511c1.062,0.646,2.391,0.652,3.442-0.011c3.006-1.894,9.412-6.293,11.847-10.784
	C362.136,34.235,362.136,33.128,361.669,32.187z"/>
<path d="M440.473,34.88h-27.659c-3.823,0-7.561-1.559-10.248-4.274l-4.839-4.894c-4.613-4.659-10.469-7.621-16.825-8.58V7.838
	c0-4.329-3.499-7.837-7.816-7.837c-4.318,0-7.816,3.508-7.816,7.837v8.955h-4.641c-5.151-6.269-12.758-13.057-23.104-16.288
	c-3.58-1.119-7.442-0.353-10.329,2.048c-2.887,2.4-4.353,6.061-3.922,9.795c0.729,6.291,2.311,15.249,5.711,23.415
	c-0.751,1.923-1.33,3.917-1.677,5.984c-6.029,36.121-18.542,110.315-36.223,214.808h-59.201c-20.792,0-38.465,14.896-42.021,35.418
	c-0.739,4.264,2.111,8.322,6.363,9.062c0.453,0.078,0.902,0.116,1.347,0.116c3.73,0,7.031-2.686,7.693-6.497
	c2.251-12.995,13.446-22.427,26.618-22.427h65.802c3.813,0,7.069-2.758,7.706-6.525c17.054-100.767,29.435-174.161,36.013-213.471
	c0.211,0.138,0.418,0.283,0.633,0.414c1.792,1.095,3.79,1.64,5.786,1.64c2.04,0,4.076-0.572,5.883-1.714
	c4.936-3.118,11.461-8.023,14.522-13.68c1.072-1.984,1.49-4.23,1.255-6.427h6.875c3.888,0,7.536,1.522,10.269,4.284l4.839,4.895
	c5.606,5.661,13.386,8.908,21.346,8.908H438.9v13.239c0,2.762,0,8.509-15.613,10.994c-7.681,1.23-25.654-3.347-35.183-6.511
	c-2.241-0.743-4.697-0.432-6.682,0.845c-1.985,1.28-3.289,3.389-3.546,5.741c0,0-2.784,25.479-6.599,60.833
	c-0.465,4.303,2.638,8.168,6.93,8.634c0.286,0.031,0.568,0.047,0.849,0.047c3.939,0,7.329-2.979,7.762-6.995
	c2.428-22.498,4.438-40.993,5.579-51.467c9.511,2.6,24.047,5.824,33.337,4.355c23.802-3.792,28.797-16.492,28.797-26.476V48.986
	C454.532,41.208,448.225,34.88,440.473,34.88z M348.051,37.512c-1.211-1.271-2.352-2.96-3.4-4.999
	c-0.067-0.146-0.14-0.288-0.216-0.431c-1.729-3.489-3.193-7.95-4.279-13.116c6.44,4.26,10.711,10.44,12.925,14.276
	C351.954,34.451,350.261,35.93,348.051,37.512z"/>
<path d="M225.768,381.891l-57.201-2.027c-2.973-0.116-5.922,1.006-8.059,3.022l-44.049,41.056H103.23
	c-6.207,0-11.256,5.06-11.256,11.281v37.122l-5.814,0.868v-58.712l9.053-10.231c2.892-2.102,4.679-5.512,4.679-9.153v-46.93
	c0-23.887,17.672-44.195,41.191-47.439l16.56,0.092c0.015,0,0.029,0,0.045,0c4.296,0,7.791-3.479,7.815-7.793
	c0.023-4.329-3.457-7.857-7.774-7.881l-17.095-0.095c-0.375-0.016-0.688,0.019-1.029,0.063c-8.86,1.13-17.107,4.079-24.388,8.444
	c-13.458,0.856-41.638,6.887-56.778,40.866c-1.44,3.22-1.266,6.976,0.467,10.044c1.73,3.061,4.841,5.137,8.333,5.553
	c2.922,0.346,6.463,0.621,10.339,0.621c2.139,0,4.383-0.09,6.679-0.292v42.663c-0.001,0.001-0.002,0.002-0.003,0.003l-9.049,10.225
	c-2.893,2.095-4.68,5.508-4.68,9.164v69.811c0,0.023-0.003,0.045-0.003,0.067v18.41c0,1.945,0.492,3.776,1.359,5.376
	c1.905,3.519,5.62,5.913,9.883,5.913h28.229c3.484,0,6.712-1.578,8.858-4.33c1.788-2.294,2.59-5.123,2.327-7.968
	c-0.052-0.572-0.133-1.145-0.273-1.715l-2.051-8.234l-0.877-3.523c-0.613-2.492-2.086-4.724-4.169-6.306l-4.706-3.541l-1.496-1.126
	v-35.642h10.57c1.445,0,2.856-0.278,4.171-0.805v40.776v21.463v0.001c0,2.217,0.665,4.279,1.798,6.005
	c0.024,0.037,0.044,0.077,0.069,0.114c0.068,0.1,0.146,0.193,0.217,0.292c1.986,2.745,5.201,4.541,8.835,4.541h0.003h30.526
	c0.405,0,0.807-0.022,1.205-0.066c0.274-0.03,0.541-0.085,0.81-0.135c0.122-0.023,0.247-0.034,0.368-0.062
	c0.279-0.063,0.551-0.148,0.822-0.232c0.106-0.032,0.215-0.054,0.32-0.09c0.279-0.095,0.548-0.213,0.817-0.33
	c0.092-0.041,0.188-0.07,0.279-0.113c0.251-0.118,0.492-0.257,0.734-0.394c0.101-0.057,0.209-0.106,0.309-0.166
	c0.219-0.134,0.427-0.288,0.638-0.438c0.113-0.08,0.232-0.15,0.342-0.235c0.181-0.139,0.349-0.298,0.521-0.449
	c0.127-0.112,0.262-0.215,0.386-0.333c0.152-0.146,0.289-0.309,0.434-0.465c0.129-0.139,0.264-0.269,0.387-0.415
	c0.002-0.002,0.003-0.004,0.004-0.006c0.002-0.002,0.004-0.004,0.006-0.007c0.132-0.158,0.243-0.327,0.365-0.491
	c0.117-0.159,0.244-0.311,0.352-0.475c0.118-0.178,0.215-0.365,0.322-0.548c0.094-0.162,0.199-0.32,0.284-0.486
	c0.117-0.228,0.212-0.464,0.312-0.698c0.055-0.131,0.122-0.256,0.173-0.388c0.12-0.311,0.216-0.63,0.307-0.951
	c0.017-0.06,0.041-0.117,0.056-0.177c0.099-0.374,0.177-0.754,0.235-1.138c0.001-0.008,0.004-0.017,0.005-0.025
	c0.049-0.327,0.075-0.658,0.094-0.99c0.004-0.068,0.017-0.135,0.019-0.203c0.005-0.126-0.006-0.253-0.005-0.378
	c0.004-0.675-0.04-1.355-0.161-2.034l-1.938-10.665l-0.537-2.964c-0.519-2.905-2.211-5.475-4.677-7.147
	c-0.11-0.075-0.212-0.159-0.325-0.231l-5.674-3.517l-4.679-2.903v-32.312l11.576-0.96c2.497-0.207,4.746-1.604,6.043-3.754
	l22.965-38.064l27.923,0.99c4.261,0.139,7.935-3.229,8.088-7.555C233.456,385.673,230.082,382.043,225.768,381.891z M97.626,487.345
	l2.93,2.204l2.628,1.979l0.598,2.398l0.597,2.398H86.159v-7.268L97.626,487.345z M75.678,334.953
	c4.89-8.607,10.863-14.397,16.961-18.275c-3.127,5.474-5.464,11.441-6.862,17.74C82.227,334.926,78.724,335.037,75.678,334.953z
	 M137.981,496.327v-10.144l9.721-1.684l3.351,2.077l6.001,3.722l0.203,1.117l0.89,4.912H137.981z M163.019,423.092l-14.771,1.226
	c-4.053,0.336-7.171,3.732-7.171,7.811v37.613l-3.096,0.536v-44.995l31.854-29.691l9.571,0.34L163.019,423.092z"/>
<path d="M375.449,170.01c-4.303-0.463-8.145,2.653-8.606,6.955c-15.89,148.388-17.094,167.007-16.965,170.899l-6.262,120.225
	l-8.603,2.223l-1.1-74.618c-0.008-0.564-0.077-1.126-0.207-1.676c-1.165-4.974-5.532-8.541-10.547-8.674l-57.76-2.048
	c-4.265-0.165-7.935,3.23-8.087,7.555c-0.153,4.325,3.221,7.955,7.536,8.108l10.319,0.366l-7.946,100.373
	c-0.28,3.213,0.79,6.403,2.936,8.751c2.063,2.257,4.974,3.552,7.987,3.552h27.065c5.102,0,9.506-3.725,10.473-8.851l0.597-3.15
	l1.698-8.952c0.001-0.006,0.002-0.013,0.003-0.019c0.732-3.913-0.689-7.915-3.601-10.451c-0.426-0.371-0.883-0.713-1.371-1.017
	l-2.921-1.804l-4.864-3.007l13.182-70.377l1.123,76.131c0.007,0.493,0.062,0.984,0.161,1.468l2.545,12.363l1.801,8.76
	c0.015,0.068,0.029,0.138,0.046,0.206c0.139,0.594,0.326,1.164,0.55,1.714c0.017,0.04,0.029,0.083,0.046,0.122
	c0.067,0.16,0.146,0.312,0.22,0.469c0.063,0.132,0.12,0.269,0.188,0.397c0.024,0.047,0.054,0.09,0.078,0.137
	c1.927,3.555,5.65,5.86,9.862,5.86h28.922c5.058,0,9.404-3.428,10.598-8.323c0.007-0.028,0.017-0.054,0.024-0.084l0.324-1.358
	l2.329-9.748c0.159-0.674,0.245-1.352,0.275-2.029c0.152-3.335-1.226-6.594-3.79-8.801c-0.159-0.137-0.318-0.274-0.485-0.402
	l-14.08-10.768l6.369-122.273c0.019-0.354,0.013-0.711-0.018-1.064c-0.049-3.628,2.12-30.588,16.89-168.513
	C382.847,174.335,379.74,170.472,375.449,170.01z M349.429,482.772l11.871,9.079l-1.068,4.472h-21.625l-0.392-1.904l-1.708-8.309
	L349.429,482.772z M303.259,400.321l-13.205,70.498l-4.937,0.913l5.688-71.852L303.259,400.321z M293.778,486.068
	c0.119,0.083,0.241,0.162,0.365,0.24c0.038,0.024,0.071,0.053,0.109,0.077l7.782,4.808l-0.973,5.133h-17.89l0.667-8.42
	L293.778,486.068z"/>
<ellipse cx="378.954" cy="46.436" rx="7.816" ry="7.837"/>
<ellipse cx="346.479" cy="82.547" rx="7.816" ry="7.837"/>
<ellipse cx="362.111" cy="120.686" rx="7.816" ry="7.837"/>
<ellipse cx="336.061" cy="155.168" rx="7.816" ry="7.837"/>
<ellipse cx="351.693" cy="194.874" rx="7.816" ry="7.837"/>
<ellipse cx="324.985" cy="229.878" rx="7.816" ry="7.837"/>
<ellipse cx="340.617" cy="281.6" rx="7.816" ry="7.837"/>
<ellipse cx="262.532" cy="294.662" rx="7.816" ry="7.837"/>
<ellipse cx="235.647" cy="326.531" rx="7.816" ry="7.837"/>
<ellipse cx="254.726" cy="358.4" rx="7.816" ry="7.837"/>
<ellipse cx="304.955" cy="314.212" rx="7.816" ry="7.837"/>
<ellipse cx="184.582" cy="322.048" rx="7.816" ry="7.837"/>
<ellipse cx="143.936" cy="329.885" rx="7.816" ry="7.837"/>
<g>
</g>
<g>
</g>
<g>
</g>
<g>
</g>
<g>
</g>
<g>
</g>
<g>
</g>
<g>
</g>
<g>
</g>
<g>
</g>
<g>
</g>
<g>
</g>
<g>
</g>
<g>
</g>
<g>
</g>
</svg>
