<?xml version="1.0" encoding="iso-8859-1"?>
<!-- Generator: Adobe Illustrator 19.0.0, SVG Export Plug-In . SVG Version: 6.00 Build 0)  -->
<svg version="1.1" id="Layer_1" xmlns="http://www.w3.org/2000/svg" xmlns:xlink="http://www.w3.org/1999/xlink" x="0px" y="0px"
	 viewBox="0 0 512 512" style="enable-background:new 0 0 512 512;" xml:space="preserve">
<path style="fill:#91AAC4;" d="M303.024,451.802l-3.073,16.143c-0.363,1.922-1.928,3.304-3.742,3.304h-36.214
	c-2.491,0-4.438-2.337-4.199-5.038l2.023-25.471l12.723-160.299l47.849-22.978l-33.214,176.723
	c-0.095,0.509-0.106,1.018-0.019,1.516c0.182,1.215,0.859,2.296,1.88,2.93l14.125,8.705
	C302.604,448.228,303.357,450.026,303.024,451.802z"/>
<path style="fill:#476775;" d="M303.024,451.802l-3.073,16.143c-0.363,1.922-1.928,3.304-3.742,3.304h-36.214
	c-2.491,0-4.438-2.337-4.199-5.038l2.023-25.471l27.339-5.038c0.182,1.215,0.859,2.296,1.88,2.93l14.125,8.705
	C302.604,448.228,303.357,450.026,303.024,451.802z"/>
<path style="fill:#91AAC4;" d="M111.908,375.159v56.23c0,0.956,0.322,1.87,0.904,2.587c0.29,0.374,0.644,0.685,1.06,0.946
	l16.853,10.42c0.997,0.623,1.693,1.642,1.901,2.794l3.312,18.21c0.467,2.556-1.495,4.903-4.08,4.903H90.997
	c-2.295,0-4.155-1.86-4.155-4.156v-114.3l12.886-70.089l82.55,15.583l-44.144,72.912c-0.716,1.183-1.955,1.95-3.332,2.064
	L111.908,375.159z"/>
<g>
	<path style="fill:#476775;" d="M131.855,471.249h-40.86c-2.295,0-4.153-1.86-4.153-4.156v-28.629l25.97-4.488
		c0.29,0.374,0.644,0.685,1.06,0.946l16.853,10.42c0.997,0.623,1.693,1.642,1.901,2.794l3.312,18.21
		C136.403,468.901,134.44,471.249,131.855,471.249z"/>
	<path style="fill:#476775;" d="M74.699,200.653c-14.355-0.471-53.834,2.679-74.312,48.485c-1.207,2.699,0.534,5.798,3.468,6.146
		c11.383,1.35,37.201,2.49,52.205-11.964c13.947-13.436,20.198-29.074,22.651-37.023C79.558,203.555,77.568,200.748,74.699,200.653z
		"/>
</g>
<path style="fill:#E1E9F2;" d="M512,82.376v9.649c0,0.592-0.01,1.174-0.043,1.746c-1.024,19.792-19.488,28.525-39.613,25.01
	l-42.071-7.352c0,0,3.557,95.286-10.854,156.269c-3.244,13.724-10.003,26.304-19.024,37.138
	c-35.624,42.766-42.652,124.931-42.652,124.931c0.065,0.508,0.215,1.003,0.442,1.434c0.28,0.539,0.679,1.014,1.164,1.38
	l21.548,16.429c1.314,0.992,1.908,2.673,1.519,4.268l-3.546,14.779c-0.442,1.876-2.102,3.191-4.031,3.191H336.12
	c-2.113,0-3.977-1.454-4.463-3.536l-5.81-28.179l-1.671-112.814c-0.485-2.016-2.242-3.461-4.311-3.524l-182.002-7.299
	c-1.207-0.043-2.393,0.389-3.287,1.24l-60.643,56.326c-0.852,0.798-1.973,1.229-3.137,1.229H50.79c-2.544,0-4.603,2.06-4.603,4.604
	v56.326c0,0.743,0.194,1.478,0.528,2.113c0.302,0.603,0.754,1.142,1.314,1.563l10.639,7.987c0.841,0.637,1.456,1.542,1.703,2.555
	l3.924,15.707c0.722,2.901-1.454,5.703-4.451,5.703H22.075c-2.543,0-4.592-2.059-4.592-4.592V348.873
	c0-1.779,1.024-3.406,2.63-4.162l13.107-14.758c1.606-0.765,2.64-2.382,2.64-4.161v-62.601c0-37.44,27.82-69.026,64.932-73.736
	l157.901,1.434c31.852,0.292,60.341-19.771,70.806-49.879l25.32-72.863c5.185-14.888,19.219-24.87,34.978-24.87h28.047
	c8.149,0,17.494,1.466,26.936,3.666c28.93,6.748,58.863,20.471,58.863,20.471C508.259,67.413,512,77.763,512,82.376z"/>
<g>
	<path style="fill:#B3D2F2;" d="M37.6,352.8c0-1.863,1.028-3.553,2.637-4.344l13.104-15.395c1.609-0.791,2.637-2.481,2.637-4.333
		V263.45c0-34.337,21.53-63.949,51.966-73.934l-7.147-0.065c-37.111,4.716-64.939,36.306-64.939,73.745v62.599
		c0,1.776-1.028,3.396-2.637,4.156l-13.104,14.761c-1.609,0.758-2.637,2.378-2.637,4.166v117.779c0,2.536,2.055,4.592,4.59,4.592
		h15.531V352.8H37.6z"/>
	<path style="fill:#B3D2F2;" d="M349.619,136.037l25.327-75.983c2.187-6.56,5.966-12.191,10.777-16.525
		c-14.062,1.554-26.173,11.03-30.898,24.624l-25.327,72.862c-8.082,23.252-26.926,40.508-49.763,47.028
		C311.214,187.935,339.257,167.123,349.619,136.037z"/>
	<path style="fill:#B3D2F2;" d="M345.964,447.338l-1.671-117.645c-0.478-2.101-2.243-3.607-4.309-3.672l-16.391-0.686
		c0.262,0.418,0.462,0.883,0.58,1.384l1.671,112.815l5.815,28.183c0.488,2.077,2.347,3.532,4.465,3.532h14.571L345.964,447.338z"/>
</g>
<g>
	<path style="fill:#476775;" d="M512,82.376v9.649c0,0.592-0.01,1.174-0.043,1.746c-27.454-9.852-55.533-15.448-59.274-27.662
		c-1.983-6.478-4.926-13.194-7.9-19.167c28.93,6.748,58.863,20.471,58.863,20.471C508.259,67.413,512,77.763,512,82.376z"/>
	<path style="fill:#476775;" d="M59.845,471.249H22.07c-2.544,0-4.589-2.056-4.589-4.602V442.09l29.24-4.353
		c0.301,0.602,0.747,1.142,1.308,1.558l10.643,7.988c0.841,0.634,1.453,1.547,1.703,2.556l3.925,15.707
		C65.016,468.444,62.836,471.249,59.845,471.249z"/>
	<path style="fill:#476775;" d="M382.414,453.277l-3.541,14.782c-0.446,1.87-2.108,3.189-4.04,3.189h-38.71
		c-2.118,0-3.977-1.454-4.465-3.532l-5.815-28.183l32.346-8.331c0.28,0.54,0.675,1.007,1.163,1.381l21.546,16.424
		C382.207,450.005,382.798,451.678,382.414,453.277z"/>
</g>
<path style="fill:#F2E5CB;" d="M387.298,43.346l-57.032,4.83c-40.532,3.434-77.854,23.046-103.684,54.221
	c-0.377,0.455-0.32,1.132,0.126,1.518c0.007,0.006,0.016,0.014,0.023,0.02c0.921,0.804,2.213,1.017,3.334,0.53l26.511-11.534
	c19.037-8.283,39.576-12.558,60.336-12.558h71.428c10.284,0,19.147-8.411,19.065-18.696
	C407.322,50.887,398.069,42.433,387.298,43.346z"/>
<circle style="fill:#476775;" cx="430.592" cy="67.552" r="8.084"/>
<path style="fill:#91AAC4;" d="M370.458,85.507l2.615-21.15c1.681-13.598,15.739-23.838,32.403-23.602l6.287,0.089
	c5.521,0.078,9.174,5.274,6.941,9.872l-12.716,26.197C396.601,97.855,370.347,98.914,370.458,85.507z"/>
<g>
</g>
<g>
</g>
<g>
</g>
<g>
</g>
<g>
</g>
<g>
</g>
<g>
</g>
<g>
</g>
<g>
</g>
<g>
</g>
<g>
</g>
<g>
</g>
<g>
</g>
<g>
</g>
<g>
</g>
</svg>
