<?xml version="1.0" encoding="iso-8859-1"?>
<!-- Generator: Adobe Illustrator 19.0.0, SVG Export Plug-In . SVG Version: 6.00 Build 0)  -->
<svg version="1.1" id="Layer_1" xmlns="http://www.w3.org/2000/svg" xmlns:xlink="http://www.w3.org/1999/xlink" x="0px" y="0px"
	 viewBox="0 0 512.001 512.001" style="enable-background:new 0 0 512.001 512.001;" xml:space="preserve">
<path style="fill:#825732;" d="M236.273,396.809h50.639v99.262c0,4.469,3.624,8.093,8.094,8.093h100.598v-7.72
	c0-14.272-11.572-25.842-25.848-25.842h-33.513c-6.567,0-11.891-5.323-11.891-11.889V349.571c0-30.614-24.823-55.432-55.443-55.432
	h-7.399c-33.878,0-61.341,27.458-61.341,61.328v5.243C200.168,380.647,216.333,396.809,236.273,396.809z"/>
<path style="fill:#C97E67;" d="M367.201,69.486h-26.65V31.413c0-13.02,10.556-23.576,23.576-23.576h0.003
	c1.697,0,3.072,1.375,3.072,3.072v58.577H367.201z"/>
<path style="fill:#FBB071;" d="M455.576,97.353v7.158c0,7.356-5.966,13.322-13.322,13.322H403.54
	c-10.156,0-18.411,8.213-18.463,18.369l-0.658,125.827c-0.042,6.531-0.481,13.019-1.306,19.446
	c-0.857,6.656-2.142,13.228-3.835,19.707c-1.943,7.387-4.42,14.649-7.408,21.703c-2.163,5.099-4.598,10.083-7.293,14.942
	c-20.177,36.404-58.535,58.985-100.164,58.985H165.7v-87.688c0-32.475,13.176-61.889,34.461-83.174s50.709-34.45,83.205-34.45
	c6.426,0,12.048-4.305,13.73-10.512l25.203-93.142V26.99c0-5.298,2.142-10.083,5.611-13.542c3.469-3.469,8.255-5.611,13.542-5.611
	c3.48,0,6.301,2.821,6.301,6.301v44.471c1.379-0.209,2.79-0.334,4.221-0.334h23.751c10.564,0,20.177,6.071,24.712,15.6l4.43,9.3
	c2.33,4.901,7.272,8.014,12.696,8.014h31.848C452.817,91.188,455.576,93.947,455.576,97.353z"/>
<g>
	<path style="fill:#CC894F;" d="M303.711,187.362c6.557,0,12.293-4.392,14.009-10.724l25.716-95.019V19.539
		c0-3.544,0.954-6.856,2.598-9.717c-1.149-1.22-2.775-1.986-4.584-1.986c-5.288,0-10.075,2.142-13.545,5.611
		c-3.46,3.459-5.602,8.244-5.602,13.542v60.855l-25.208,93.142c-0.739,2.723-2.236,5.079-4.226,6.868
		C296.441,187.535,300.055,187.362,303.711,187.362z"/>
	<path style="fill:#CC894F;" d="M218.833,222.507c13.93-13.926,31.275-24.437,50.667-30.191
		c-26.952,3.163-51.124,15.422-69.338,33.633c-21.289,21.285-34.458,50.698-34.458,83.174v87.688h17.977v-89.455
		C183.682,274.226,197.115,244.22,218.833,222.507z"/>
</g>
<g>
	<path style="fill:#C97E67;" d="M194.757,396.809h-42.625c-52.774,0-95.708-42.926-95.708-95.69v-82.184
		c0-7.502,6.082-13.584,13.587-13.584c7.503,0,13.587,6.081,13.587,13.584v82.184c0,37.784,30.745,68.522,68.535,68.522h42.625
		c7.503,0,13.587,6.081,13.587,13.584C208.344,390.728,202.261,396.809,194.757,396.809z"/>
	<path style="fill:#C97E67;" d="M455.576,97.353v7.158c0,7.356-5.967,13.322-13.326,13.322h-12.866V91.188h20.024
		C452.816,91.188,455.576,93.947,455.576,97.353z"/>
</g>
<path style="fill:#CC894F;" d="M383.112,281.475c-0.846,6.572-2.111,13.061-3.772,19.456c-0.021,0.084-0.042,0.167-0.063,0.251
	c-1.943,7.387-4.42,14.649-7.408,21.703c-13.396-1.076-24.346-12.278-24.346-25.945v-53.154c0.513-0.185,1.04-0.363,1.577-0.531
	c2.042-0.641,4.238-0.772,6.306-0.22c7.743,2.064,13.444,9.122,13.444,17.512v16.102c0,2.667,2.161,4.827,4.827,4.827h9.435V281.475
	z"/>
<path style="fill:#EDA264;" d="M406.737,324.566v18.86c0,4.998-4.051,9.049-9.049,9.049h-0.01c-4.998,0-9.049-4.051-9.049-9.049
	v-6.499c0-2.568-2.081-4.65-4.65-4.65h-2.205c-2.58,0-4.628-2.112-4.65-4.692c-0.011-1.269-0.531-2.413-1.358-3.25
	c-0.836-0.836-2.006-1.358-3.281-1.358h-23.312c-14.381,0-26.039-11.658-26.039-26.039v-23.625c0-8.871,4.378-17.178,11.692-22.194
	l6.361-4.365c0.689-0.472,1.409-0.888,2.164-1.243c1.236-0.582,2.651-1.189,4.17-1.726v52.318c0,2.667,2.161,4.827,4.827,4.827
	h30.751C396.163,300.931,406.737,311.515,406.737,324.566z"/>
<path style="fill:#FBB071;" d="M201.812,396.809h50.639v99.262c0,4.469,3.624,8.093,8.094,8.093h100.598v-7.72
	c0-14.272-11.572-25.842-25.848-25.842h-33.513c-6.567,0-11.891-5.323-11.891-11.889V349.571c0-30.614-24.823-55.432-55.443-55.432
	h-7.399c-33.878,0-61.341,27.458-61.341,61.328v5.243C165.706,380.647,181.871,396.809,201.812,396.809z"/>
<g>
	<path style="fill:#CC894F;" d="M186.604,360.71v-5.243c0-31.527,23.798-57.484,54.41-60.928c-2.156-0.255-4.344-0.4-6.568-0.4
		h-7.399c-33.878,0-61.341,27.458-61.341,61.328v5.243c0,19.937,16.165,36.098,36.105,36.098h20.898
		C202.769,396.809,186.604,380.647,186.604,360.71z"/>
	<path style="fill:#CC894F;" d="M273.347,496.071v-83.926c0-8.47-6.866-15.336-15.336-15.336h-1.382c-2.308,0-4.18,1.871-4.18,4.18
		v95.083c0,4.469,3.623,8.093,8.093,8.093h20.9C276.972,504.163,273.347,500.54,273.347,496.071z"/>
</g>
<circle cx="386.759" cy="91.188" r="7.837"/>
<path d="M449.41,83.352h-20.024h-11.821c-2.391,0-4.596-1.391-5.624-3.548l-4.429-9.296c-5.803-12.191-18.278-20.069-31.783-20.069
	h-0.695V10.909c0-2.876-1.115-5.596-3.196-7.718C369.779,1.133,367.04,0,364.126,0c-4.846,0-9.531,1.102-13.768,3.173
	C347.925,1.192,344.825,0,341.45,0c-7.208,0-13.986,2.808-19.086,7.906c-5.093,5.092-7.897,11.869-7.897,19.084v59.813l-4.239,15.66
	c-1.131,4.179,1.34,8.481,5.517,9.612c4.18,1.13,8.481-1.341,9.612-5.517l4.511-16.666c0.181-0.668,0.272-1.356,0.272-2.047V26.99
	c0-3.027,1.174-5.868,3.306-8c1.772-1.772,4.028-2.885,6.469-3.214v42.832c0,2.283,0.996,4.452,2.726,5.941
	c1.73,1.488,4.024,2.148,6.282,1.807c1.095-0.165,2.092-0.246,3.05-0.246h23.756c7.491,0,14.411,4.37,17.633,11.134l4.428,9.294
	c3.607,7.585,11.37,12.485,19.775,12.485h3.984v10.971H403.54c-14.43,0-26.23,11.737-26.303,26.165l-0.405,77.479
	c-0.022,4.328,3.468,7.854,7.796,7.877c0.015,0,0.027,0,0.042,0c4.309,0,7.814-3.483,7.836-7.796l0.405-77.48
	c0.029-5.831,4.798-10.573,10.63-10.573h25.846h12.866c11.668,0,21.161-9.492,21.161-21.159v-7.158
	C463.412,89.632,457.13,83.352,449.41,83.352z M355.588,18.215c1.178-0.767,2.438-1.388,3.773-1.81v34.032h-3.773V18.215z
	 M447.739,104.511c0,3.025-2.462,5.486-5.488,5.486h-5.029V99.025h10.517V104.511z"/>
<path d="M389.035,293.662c2.073-10.384,3.161-20.97,3.219-31.589c0.024-4.328-3.465-7.857-7.793-7.881
	c-4.297-0.05-7.857,3.465-7.881,7.793c-0.057,10.473-1.224,20.908-3.442,31.108h-17.785v-50.677c0-4.328-3.509-7.837-7.837-7.837
	s-7.837,3.509-7.837,7.837V296.1c0,6.985,5.683,12.667,12.668,12.667h26.964c0.01,0,0.022,0.002,0.032,0.002
	c0.008,0,0.017-0.002,0.024-0.002h3.736c8.711,0,15.799,7.085,15.799,15.795v18.861c0,0.673-0.548,1.219-1.22,1.219
	c-0.673,0-1.22-0.547-1.22-1.219v-6.496c0-6.689-5.289-12.168-11.905-12.473c-1.409-5.353-6.289-9.311-12.078-9.311h-0.564
	c-0.047,0-0.094,0-0.141,0h-22.599c-10.039,0-18.206-8.165-18.206-18.201v-37.807c0-4.328-3.509-7.837-7.837-7.837
	s-7.837,3.509-7.837,7.837v37.807c0,18.679,15.198,33.875,33.88,33.875h10.274c-0.566,1.083-1.142,2.156-1.73,3.213
	c-8.874,16.022-21.832,29.57-37.473,39.175c-7.105,4.362-14.653,7.841-22.521,10.425v-34.058c0-34.887-28.387-63.269-63.28-63.269
	h-7.399c-21.543,0-40.813,9.899-53.51,25.385v-2.564c0-29.32,11.423-56.891,32.165-77.632
	c20.736-20.736,48.317-32.155,77.664-32.155c9.937,0,18.693-6.702,21.295-16.301l7.67-28.338c1.131-4.179-1.34-8.481-5.517-9.612
	c-4.18-1.128-8.481,1.341-9.612,5.517l-7.668,28.336c-0.754,2.783-3.289,4.725-6.166,4.725c-33.533,0-65.05,13.05-88.746,36.746
	c-23.702,23.702-36.756,55.208-36.756,88.715v52.684h-5.726c-33.469,0-60.698-27.224-60.698-60.688c0-4.328-3.509-7.837-7.837-7.837
	s-7.837,3.509-7.837,7.837c0,42.105,34.26,76.361,76.372,76.361h5.726v11.494h-5.726c-48.455,0-87.876-39.411-87.876-87.855v-82.181
	c0-3.169,2.578-5.747,5.747-5.747c3.174,0,5.757,2.578,5.757,5.747V256c0,4.328,3.509,7.837,7.837,7.837s7.837-3.509,7.837-7.837
	v-37.063c0-11.812-9.614-21.42-21.431-21.42c-11.812,0-21.42,9.609-21.42,21.42v82.181c0,57.086,46.452,103.529,103.549,103.529
	h13.563h29.059h41.514h8.34v91.424c0,8.783,7.146,15.929,15.931,15.929h34.462h66.135h34.458c4.328,0,7.837-3.509,7.837-7.837
	v-7.722c0-18.569-15.107-33.677-33.677-33.677h-33.52c-2.235,0-4.054-1.819-4.054-4.054v-74.546
	c16.268-10.826,29.783-25.452,39.24-42.528c0.807-1.451,1.591-2.931,2.361-4.424c1.93,1.612,4.351,2.656,7.003,2.865v3.348
	c0,9.315,7.579,16.893,16.894,16.893c9.315,0,16.894-7.578,16.894-16.893v-18.861C414.578,309.238,403.563,296.444,389.035,293.662z
	 M316.51,392.989v65.721c0,1.39,0.148,2.744,0.423,4.053H301.78c-2.235,0-4.054-1.817-4.054-4.051v-58.699
	C304.177,398.19,310.453,395.842,316.51,392.989z M295.006,496.327h-34.462c-0.142,0-0.257-0.115-0.257-0.256v-99.262
	c0-4.328-3.509-7.837-7.837-7.837h-50.639c-15.588,0-28.269-12.678-28.269-28.261v-5.243c0-29.495,24.002-53.491,53.505-53.491
	h7.399c26.251,0,47.607,21.351,47.607,47.595v44.441c0,0.047-0.001,0.093,0,0.14v64.561c0,10.876,8.849,19.725,19.728,19.725h33.513
	c9.893,0,17.948,8.014,18.011,17.89H295.006z M387.762,496.327h-18.786c-0.023-6.574-1.944-12.707-5.236-17.889h6.02
	C379.647,478.438,387.7,486.451,387.762,496.327z"/>
<g>
</g>
<g>
</g>
<g>
</g>
<g>
</g>
<g>
</g>
<g>
</g>
<g>
</g>
<g>
</g>
<g>
</g>
<g>
</g>
<g>
</g>
<g>
</g>
<g>
</g>
<g>
</g>
<g>
</g>
</svg>
