<?xml version="1.0" encoding="iso-8859-1"?>
<!-- Generator: Adobe Illustrator 19.0.0, SVG Export Plug-In . SVG Version: 6.00 Build 0)  -->
<svg version="1.1" id="Layer_1" xmlns="http://www.w3.org/2000/svg" xmlns:xlink="http://www.w3.org/1999/xlink" x="0px" y="0px"
	 viewBox="0 0 512 512" style="enable-background:new 0 0 512 512;" xml:space="preserve">
<ellipse style="fill:#3F5666;" cx="136.432" cy="71.147" rx="42.914" ry="43.071"/>
<ellipse style="fill:#587F91;" cx="136.432" cy="71.147" rx="42.914" ry="43.071"/>
<ellipse style="fill:#3F5666;" cx="136.432" cy="71.147" rx="20.041" ry="20.111"/>
<path style="fill:#9EC767;" d="M414.17,512h-145.58c-2.381,0-4.311-1.93-4.311-4.311V4.311c0-2.381,1.93-4.311,4.311-4.311h145.581
	c2.381,0,4.311,1.93,4.311,4.311V507.69C418.481,510.07,416.551,512,414.17,512z"/>
<path style="fill:#89AD5C;" d="M264.278,4.311v503.376c0,2.381,1.93,4.311,4.31,4.311h17.241V0h-17.241
	C266.208,0,264.278,1.93,264.278,4.311z"/>
<ellipse style="fill:#91BED4;" cx="299.749" cy="71.147" rx="42.914" ry="43.071"/>
<rect x="363.843" style="fill:#89AD5C;" width="21.552" height="512"/>
<ellipse style="fill:#3F5666;" cx="298.715" cy="71.147" rx="20.041" ry="20.111"/>
<g>
	<path style="fill:#91BED4;" d="M287.577,492.093h-85.52c-55.193,0-100.35-45.157-100.35-100.35v-53.567
		c0-71.754,58.708-130.461,130.461-130.461h7.676c33.092,0,60.166,27.075,60.166,60.166v211.778
		C300.012,486.498,294.416,492.093,287.577,492.093z"/>
	<path style="fill:#91BED4;" d="M300.012,267.889v211.763c0,6.845-5.592,12.438-12.435,12.438h-85.538
		c-55.183,0-100.333-45.164-100.333-100.362V338.2c0-71.767,58.707-130.49,130.441-130.49h7.705
		C272.944,207.71,300.012,234.798,300.012,267.889z"/>
</g>
<g>
	<path style="fill:#628FA3;" d="M239.854,207.714h-7.704c-2.773,0-5.524,0.098-8.257,0.271c30.49,2.846,54.567,28.694,54.567,59.905
		v211.767c0,6.84-5.594,12.435-12.432,12.435h21.552c6.838,0,12.432-5.595,12.432-12.435V267.89
		C300.012,234.794,272.94,207.714,239.854,207.714z"/>
	<path style="fill:#628FA3;" d="M300.012,347.923v23.088c-2.694-0.712-5.367-1.628-8.006-2.738l-51.563-21.752
		c-10.39-4.385-15.853-15.487-13.518-26.082c0.285-1.293,1.71-1.98,2.929-1.466l62.151,26.222
		C294.646,346.306,297.318,347.211,300.012,347.923z"/>
	<path style="fill:#628FA3;" d="M300.012,392.849v21.558h-52.187c-1.19,0-2.156-0.965-2.156-2.156v-1.197
		c0-10.054,8.148-18.205,18.2-18.205H300.012z"/>
	<path style="fill:#628FA3;" d="M123.259,391.728v-53.533c0-68.99,54.251-125.911,122.186-130.209
		c-1.842-0.172-3.706-0.271-5.591-0.271h-7.704c-71.743,0-130.442,58.716-130.442,130.481v53.533
		c0,55.201,45.151,100.365,100.335,100.365h21.552C168.41,492.093,123.259,446.929,123.259,391.728z"/>
</g>
<g>
	<path style="fill:#91BED4;" d="M251.866,239.709l114.627,67.109c3.099,1.814,4.29,5.713,2.739,8.96l0,0
		c-13.818,28.897-47.789,41.836-77.227,29.414l-73.079-30.835L251.866,239.709z"/>
	<path style="fill:#91BED4;" d="M245.668,414.402h80.038c33.022,0,59.792,26.87,59.792,60.014l0,0
		c0,9.762-7.885,17.677-17.611,17.677h-122.22V414.402z"/>
	<ellipse style="fill:#91BED4;" cx="217.474" cy="133.089" rx="92.693" ry="93.038"/>
</g>
<path style="fill:#628FA3;" d="M147.206,133.09c0-47.573,35.581-86.78,81.485-92.339c-3.678-0.445-7.414-0.701-11.211-0.701
	c-51.195,0-92.695,41.656-92.695,93.04s41.501,93.04,92.695,93.04c3.797,0,7.533-0.256,11.211-0.701
	C182.787,219.87,147.206,180.663,147.206,133.09z"/>
<path style="fill:#3F5666;" d="M229.604,197.095h-24.249c-7.114,0-12.934-5.82-12.934-12.934v-36.606
	c0-13.782,11.277-25.059,25.059-25.059l0,0c13.782,0,25.059,11.277,25.059,25.059v36.606
	C242.538,191.275,236.718,197.095,229.604,197.095z"/>
<g>
	<path style="fill:#2F3F4A;" d="M213.973,184.158v-36.6c0-9.933,5.856-18.564,14.283-22.612c-3.267-1.569-6.921-2.451-10.773-2.451
		h-0.006c-13.781,0-25.056,11.279-25.056,25.063v36.6c0,7.115,5.82,12.937,12.933,12.937h21.552
		C219.792,197.095,213.973,191.274,213.973,184.158z"/>
	<circle style="fill:#2F3F4A;" cx="160.517" cy="133.089" r="8.082"/>
	<circle style="fill:#2F3F4A;" cx="274.442" cy="133.089" r="8.082"/>
</g>
<g>
	<path style="fill:#CCE8A7;" d="M385.498,154.74c-4.464,0-8.082-3.62-8.082-8.084V28.072c0-4.465,3.617-8.084,8.082-8.084
		c4.464,0,8.082,3.62,8.082,8.084v118.584C393.58,151.12,389.962,154.74,385.498,154.74z"/>
	<path style="fill:#CCE8A7;" d="M385.498,415.996c-4.464,0-8.082-3.62-8.082-8.084V207.714c0-4.465,3.617-8.084,8.082-8.084
		c4.464,0,8.082,3.62,8.082,8.084v200.197C393.58,412.376,389.962,415.996,385.498,415.996z"/>
</g>
<g>
</g>
<g>
</g>
<g>
</g>
<g>
</g>
<g>
</g>
<g>
</g>
<g>
</g>
<g>
</g>
<g>
</g>
<g>
</g>
<g>
</g>
<g>
</g>
<g>
</g>
<g>
</g>
<g>
</g>
</svg>
