<?xml version="1.0" encoding="iso-8859-1"?>
<!-- Generator: Adobe Illustrator 19.0.0, SVG Export Plug-In . SVG Version: 6.00 Build 0)  -->
<svg version="1.1" id="Layer_1" xmlns="http://www.w3.org/2000/svg" xmlns:xlink="http://www.w3.org/1999/xlink" x="0px" y="0px"
	 viewBox="0 0 512 512" style="enable-background:new 0 0 512 512;" xml:space="preserve">
<g>
	<path style="fill:#825732;" d="M143.623,274.238h-27.521C52.083,274.238,0,222.102,0,158.017S52.083,41.795,116.103,41.795h93.388
		c6.699,0,12.129,5.437,12.129,12.142c0,6.706-5.43,12.142-12.129,12.142h-93.388c-50.643,0-91.844,41.244-91.844,91.94
		c0,50.694,41.201,91.938,91.844,91.938h27.521c6.699,0,12.129,5.437,12.129,12.142
		C155.751,268.803,150.321,274.238,143.623,274.238z"/>
	<path style="fill:#825732;" d="M400.33,451.219l-3.058,15.515c-0.397,2.02-2.158,3.47-4.208,3.47h-45.562
		c-2.587,0-4.605-2.235-4.357-4.802l2.49-25.818l12.794-132.518l51.492-6.964l-26.161,132.777c-0.108,0.516-0.129,1.031-0.043,1.536
		c0.15,1.139,0.762,2.17,1.717,2.868l13.213,9.627C399.997,447.888,400.663,449.575,400.33,451.219z"/>
	<path style="fill:#825732;" d="M261.047,470.204H224.35c-1.578,0-3.027-0.848-3.799-2.213l-14.2-24.98l-20.382-35.854
		c-0.171-0.301-0.301-0.634-0.397-0.967l-10.293-36.251l-9.799-39.334l75.465-14.236l-15.617,75.499
		c-0.161,0.752-0.118,1.526,0.129,2.256l12.751,38.808c0.022,0.075,0.053,0.15,0.086,0.226c0.375,0.988,1.105,1.794,2.028,2.288
		l18.579,9.755c1.105,0.58,1.9,1.601,2.211,2.815l4.175,16.739C265.984,467.529,263.891,470.204,261.047,470.204z"/>
</g>
<g>
	<path style="fill:#F2E5CB;" d="M261.047,470.204H224.35c-1.578,0-3.027-0.848-3.799-2.213l-14.2-24.98l31.941-9.852
		c0.375,0.988,1.105,1.794,2.028,2.288l18.579,9.755c1.105,0.58,1.9,1.601,2.211,2.815l4.175,16.739
		C265.984,467.529,263.891,470.204,261.047,470.204z"/>
	<path style="fill:#F2E5CB;" d="M400.33,451.219l-3.058,15.515c-0.397,2.02-2.158,3.47-4.208,3.47h-45.562
		c-2.587,0-4.605-2.235-4.357-4.802l2.49-25.818l38.081-5.168c0.15,1.139,0.762,2.17,1.717,2.868l13.213,9.627
		C399.997,447.888,400.663,449.575,400.33,451.219z"/>
</g>
<path style="fill:#FBB071;" d="M512,137.177v21.638c0,17.511-14.181,31.706-31.674,31.706h-17.412l-13.319,69.936
	c-1.105,9.874-1.03,19.833,0.226,29.686l19.738,137.697c0.043,0.323,0.118,0.634,0.226,0.924c0.344,0.946,0.998,1.751,1.867,2.278
	l20.984,12.377c1.309,0.795,2.125,2.225,2.125,3.761l-2.801,18.641c0,2.418-1.964,4.383-4.379,4.383h-46.077
	c-2.018,0-3.789-1.397-4.251-3.362l-6.419-26.807c0,0-13.713-53.276-24.432-101.717c-0.496-2.245-2.672-3.707-4.939-3.311
	c-72.97,12.764-114.853-5.227-114.853-5.227s-69.804,8.584-81.827,10.868c-1.051,0.2-1.989,0.775-2.637,1.627l-24.673,32.411
	c-10.629,13.963-27.16,22.157-44.697,22.157h-24.707c-2.424,0-4.39,1.962-4.39,4.383v35.036c0,0.462,0.075,0.913,0.214,1.332
	c0.269,0.86,0.805,1.623,1.535,2.17l10.132,7.607c0.805,0.602,1.384,1.462,1.621,2.439l3.736,14.945
	c0.686,2.772-1.395,5.447-4.239,5.447H80.71c-2.413,0-4.369-1.953-4.369-4.362v-93.581c0-1.698,0.977-3.244,2.512-3.964
	l29.967-14.064c1.535-0.72,2.522-2.267,2.522-3.964v-59.627c0-35.659,26.5-65.765,61.833-70.245l138.176-17.532
	c20.277-2.573,37.48-16.139,44.725-35.273l41.359-63.18l51.212-3.98c12.771-0.993,25.117,4.909,32.341,15.498
	c2.638,3.867,4.349,6.748,4.349,6.748C487.708,122.673,512,134.803,512,137.177z"/>
<g>
	<path style="fill:#CC894F;" d="M451.181,450.577c0,0-11.93-49.503-22.232-98.148c-1.726-8.149-9.523-13.482-17.772-12.245
		c-1.288,0.193-2.566,0.376-3.833,0.55c10.634,47.779,23.895,99.3,23.895,99.3l6.419,26.807c0.462,1.965,2.233,3.362,4.251,3.362
		h13.671L451.181,450.577z"/>
	<path style="fill:#CC894F;" d="M96.348,378.187c0-1.813,0.977-3.466,2.512-4.235l29.967-15.021
		c1.535-0.769,2.522-2.422,2.522-4.235v-63.692c0-32.563,19.378-60.774,47.077-71.268l-5.185,0.657
		c-35.333,4.482-61.833,34.586-61.833,70.245v59.63c0,1.697-0.987,3.244-2.522,3.964l-29.967,14.063
		c-1.535,0.72-2.512,2.267-2.512,3.965v93.571c0,2.416,1.956,4.373,4.369,4.373h15.573v-92.018H96.348z"/>
</g>
<g>
	<path style="fill:#F2E5CB;" d="M116.676,470.204H80.71c-2.415,0-4.369-1.966-4.369-4.383v-24.722l27.552-3.502
		c0.269,0.86,0.805,1.623,1.535,2.17l10.132,7.607c0.805,0.602,1.384,1.462,1.621,2.439l3.736,14.945
		C121.603,467.529,119.521,470.204,116.676,470.204z"/>
	<path style="fill:#F2E5CB;" d="M494.76,447.179l-2.801,18.641c0,2.418-1.964,4.383-4.379,4.383h-46.077
		c-2.018,0-3.789-1.397-4.251-3.362l-6.419-26.807l38.951-11.27c0.344,0.946,0.998,1.751,1.867,2.278l20.984,12.377
		C493.944,444.214,494.76,445.642,494.76,447.179z"/>
</g>
<ellipse style="fill:#825732;" cx="462.796" cy="130.695" rx="8.084" ry="8.073"/>
<path style="fill:#FF5845;" d="M462.914,190.522c0,0-21.996-19.176-30.613-34.661c0,0-10.785-14.943,12.201-55.111
	c0,0,22.628-0.431,34.19-24.353c14.238-29.46-71.167-25.906-108.869,4.646s-26.7,88.447-47.332,119.209
	C309.476,219.657,451.16,279.22,453.58,316.369C453.58,316.369,503.223,242.105,462.914,190.522z"/>
<path style="fill:#B53C2F;" d="M344.409,200.251c20.633-30.763,9.63-88.659,47.332-119.209
	c17.152-13.899,44.176-22.209,67.201-24.366c-25.025-2.931-66.021,5.649-89.118,24.366c-37.702,30.552-26.7,88.446-47.332,119.209
	c-13.015,19.405,128.669,78.968,131.088,116.118c0,0,5.135-7.687,10.759-19.823C430.73,260.752,333.529,216.472,344.409,200.251z"/>
<g>
</g>
<g>
</g>
<g>
</g>
<g>
</g>
<g>
</g>
<g>
</g>
<g>
</g>
<g>
</g>
<g>
</g>
<g>
</g>
<g>
</g>
<g>
</g>
<g>
</g>
<g>
</g>
<g>
</g>
</svg>
