<?xml version="1.0" encoding="iso-8859-1"?>
<!-- Generator: Adobe Illustrator 19.0.0, SVG Export Plug-In . SVG Version: 6.00 Build 0)  -->
<svg version="1.1" id="Layer_1" xmlns="http://www.w3.org/2000/svg" xmlns:xlink="http://www.w3.org/1999/xlink" x="0px" y="0px"
	 viewBox="0 0 512 512" style="enable-background:new 0 0 512 512;" xml:space="preserve">
<path style="fill:#DBCBA9;" d="M191.194,373.161h-33.682c-34.414,0-62.411-28.018-62.411-62.457V94.326
	c0-18.039-14.665-32.716-32.692-32.716S29.718,76.287,29.718,94.326v20.819c0,8.213-6.653,14.871-14.859,14.871S0,123.358,0,115.145
	v-20.82c0-34.439,27.997-62.457,62.411-62.457s62.411,28.018,62.411,62.457v216.377c0,18.039,14.665,32.716,32.692,32.716h33.682
	c8.207,0,14.859,6.658,14.859,14.871C206.054,366.503,199.401,373.161,191.194,373.161z"/>
<path style="fill:#F2E5CB;" d="M511.999,123.758c-0.183,14.648-9.162,53.902-77.167,32.62c-0.15-0.043-0.227-0.075-0.227-0.075
	c-3.094,0.13-3.449,145.742-141.646,218.015c-138.186,72.283-165.338-93.404-28.23-158.514
	c63.715-30.269,99.091-108.884,104.373-121.364c0.464-1.09,0.701-2.243,0.766-3.43c0.108-2.222,0.345-4.466,0.701-6.709
	c5.422-33.936,37.316-57.063,71.228-51.637c14.67,2.33,33.522,19.05,39.892,25.047c1.401,1.316,2.07,3.214,1.811,5.113
	c-0.852,6.278-2.749,20.679-2.975,25.522c-0.032,0.723,0.13,1.445,0.485,2.071C489.266,104.773,512.139,112.96,511.999,123.758z"/>
<path style="fill:#D1C1A1;" d="M286.181,229.061c62.877-38.792,101.608-118.243,106.608-130.839
	c2.35-5.92,0.766-13.456,0.463-15.708c-4.272-31.825,19.762-46.486,46.214-50.166c-33.029-4.029-63.599,18.794-68.896,51.95
	c-0.355,2.243-0.592,4.488-0.7,6.709c-0.065,1.187-0.302,2.341-0.766,3.43c-5.282,12.48-40.658,91.096-104.373,121.364
	c-115.818,54.999-114.425,181.762-27.91,176.237C176.161,377.503,182.839,282.926,286.181,229.061z"/>
<g>
	<path style="fill:#E8C1B5;" d="M423.284,67.998c0.738-2.005-0.102-4.239-1.97-5.275c-6.495-3.603-20.602-9.504-20.325,7.392
		c0.232,14.137,3.397,20.163,6.684,23.24c2.219,2.077,5.863,1.122,6.913-1.731L423.284,67.998z"/>
	<path style="fill:#E8C1B5;" d="M511.999,123.758c-0.183,14.648-9.162,53.902-77.167,32.62c-0.15-0.043-0.227-0.075-0.227-0.075
		s-20.426-17.734-12.385-37.873c8.042-20.139,22.41-24.454,25.288-38.121c2.867-13.667,14.498-26.342,35.992-17.485
		c-0.852,6.278-2.749,20.679-2.975,25.522c-0.032,0.723,0.13,1.445,0.485,2.071C489.266,104.773,512.139,112.96,511.999,123.758z"/>
</g>
<circle style="fill:#754A3C;" cx="462.942" cy="96.141" r="8.084"/>
<path style="fill:#F2E5CB;" d="M377.918,243.897l71.169,169.716c0.222,0.529,0.335,1.096,0.335,1.67v18.78
	c0,0.972,0.328,1.916,0.931,2.678l5.187,6.557c1.698,2.146,0.995,5.313-1.452,6.538l-17.637,8.825
	c-1.461,0.73-2.383,2.225-2.383,3.859v6.898c0,2.383,1.93,4.314,4.311,4.314h36.947c2.381,0,4.311-1.932,4.311-4.314v-72.216
	c0-0.419-0.061-0.835-0.181-1.236l-63.219-211.552L377.918,243.897z"/>
<path style="fill:#D1C1A1;" d="M457.602,469.418v-6.897c0-1.634,15.355-9.075,15.355-10.047v-37.19c0-0.574-0.114-1.141-0.335-1.67
	l-71.866-170.642c-3.729-8.854-15.857-9.91-21.061-1.833l-1.776,2.757l71.169,169.716c0.222,0.529,0.335,1.096,0.335,1.67v18.78
	c0,0.972,0.328,1.915,0.931,2.678l5.187,6.557c1.699,2.147,0.995,5.313-1.454,6.539l-17.635,8.824
	c-1.461,0.73-2.383,2.224-2.383,3.857v6.905c0,2.38,1.93,4.31,4.311,4.31h23.534C459.533,473.732,457.602,471.8,457.602,469.418z"/>
<path style="fill:#E3D2AF;" d="M284.901,480.13h80.352c6.564,0,11.886-5.326,11.886-11.895l0,0
	c0-15.279-12.377-27.664-27.643-27.664H301.2l64.171-126.5c3.109-6.127,4.728-12.901,4.728-19.773l0,0
	c0-16.909-14.811-29.988-31.576-27.884l-82.446,10.344c-153.051,15.448-71.758,176.777,9.772,120.841
	c22.634-15.528,27.337-28.742,27.337-28.742l-33.591,76.894C254.302,462.817,267.046,480.13,284.901,480.13z"/>
<g>
	<path style="fill:#B0A387;" d="M258.036,279.789c3.959-1.025,5.293-3.939,4.018-3.779l-5.978,0.75
		c-137.682,13.897-85.717,145.847-14.539,131.483C186.436,396.922,157.783,301.11,258.036,279.789z"/>
	<path style="fill:#B0A387;" d="M281.153,445.753l22.482-51.462c3.022-6.916,1.352-14.984-4.145-20.157
		c-3.384-3.184-6.302-5.276-6.302-5.276l-33.592,76.894c-5.293,17.064,7.451,34.377,25.305,34.377h21.558
		C288.604,480.13,275.859,462.817,281.153,445.753z"/>
</g>
<g>
</g>
<g>
</g>
<g>
</g>
<g>
</g>
<g>
</g>
<g>
</g>
<g>
</g>
<g>
</g>
<g>
</g>
<g>
</g>
<g>
</g>
<g>
</g>
<g>
</g>
<g>
</g>
<g>
</g>
</svg>
