<?xml version="1.0" encoding="iso-8859-1"?>
<!-- Generator: Adobe Illustrator 19.0.0, SVG Export Plug-In . SVG Version: 6.00 Build 0)  -->
<svg version="1.1" id="Layer_1" xmlns="http://www.w3.org/2000/svg" xmlns:xlink="http://www.w3.org/1999/xlink" x="0px" y="0px"
	 viewBox="0 0 512 512" style="enable-background:new 0 0 512 512;" xml:space="preserve">
<path style="fill:#3F5666;" d="M58.017,224.989c0,0-42.994-2.903-42.994,26.039c0,13.024-3.042,21.322-6.389,26.51
	C3.151,286.038,0,295.829,0,305.945v12.57c0,2.381,1.93,4.311,4.311,4.311h21.6c17.732,0,32.106-14.374,32.106-32.104
	C58.017,290.721,58.017,224.989,58.017,224.989z"/>
<path style="fill:#7D4F40;" d="M117.079,383.204v55.498c0,0.944,0.318,1.845,0.891,2.553c0.287,0.369,0.635,0.677,1.045,0.933
	l16.635,10.284c0.984,0.615,1.671,1.62,1.876,2.758l3.269,17.973c0.461,2.522-1.476,4.839-4.028,4.839h-40.33
	c-2.265,0-4.1-1.835-4.1-4.101V361.13l12.72-69.174l81.483,15.379l-44.698,73.819L117.079,383.204z"/>
<path style="fill:#3F5666;" d="M136.768,478.041H96.437c-2.265,0-4.1-1.835-4.1-4.101v-28.256l25.633-4.429
	c0.287,0.369,0.635,0.677,1.045,0.933l16.635,10.284c0.984,0.615,1.671,1.62,1.876,2.758l3.269,17.973
	C141.258,475.724,139.32,478.041,136.768,478.041z"/>
<path style="fill:#7D4F40;" d="M330.311,456.88l-3.033,15.933c-0.358,1.897-1.903,3.26-3.693,3.26h-35.746
	c-2.459,0-4.381-2.307-4.145-4.973l1.997-25.139l12.558-158.209l47.23-22.678l-32.785,174.419c-0.094,0.503-0.103,1.005-0.019,1.497
	c0.179,1.2,0.847,2.266,1.856,2.891l13.943,8.592C329.896,453.352,330.641,455.127,330.311,456.88z"/>
<path style="fill:#3F5666;" d="M330.311,456.88l-3.033,15.933c-0.358,1.897-1.903,3.26-3.693,3.26h-35.746
	c-2.459,0-4.381-2.307-4.145-4.973l1.997-25.139l26.986-4.973c0.179,1.2,0.847,2.266,1.856,2.891l13.943,8.592
	C329.896,453.352,330.641,455.127,330.311,456.88z"/>
<path style="fill:#E8C1B5;" d="M501.201,56.532v15.875c0,15.893-12.884,28.775-28.776,28.775H305.561
	c-15.893,0-28.776-12.884-28.776-28.775V56.532c0-12.466,10.106-22.572,22.572-22.572h3.559c1.19,0,2.156,0.965,2.156,2.156v22.334
	h22.812V51.21c0-9.527,7.724-17.25,17.251-17.25h9.745c1.119,0,2.026,0.907,2.026,2.026v31.58h64.174v-31.45
	c0-1.19,0.965-2.156,2.156-2.156h9.62c9.524,0,17.245,7.721,17.245,17.245v7.244h22.812V36.115c0-1.19,0.965-2.156,2.156-2.156
	h3.559C491.095,33.96,501.201,44.065,501.201,56.532z"/>
<g>
	<path style="fill:#CCA295;" d="M442.638,37.01c-2.78-1.921-6.147-3.05-9.781-3.05h-9.62c-1.19,0-2.156,0.965-2.156,2.156v31.45
		h0.511c11.623,0,21.047-9.423,21.047-21.046v-9.51H442.638z"/>
	<path style="fill:#CCA295;" d="M349.441,51.21c0-5.524,2.6-10.436,6.638-13.593c0.508-0.397,0.825-0.987,0.825-1.632l0,0
		c0-1.119-0.907-2.026-2.026-2.026h-9.751c-9.524,0-17.245,7.721-17.245,17.245v7.244h14.319
		C346.2,58.449,349.441,55.208,349.441,51.21L349.441,51.21z"/>
	<path style="fill:#CCA295;" d="M298.341,72.397V56.532c0-6.291,2.578-11.977,6.729-16.069v-4.346c0-1.19-0.966-2.156-2.156-2.156
		h-3.567c-12.462,0-22.565,10.102-22.565,22.564v15.873c0,15.898,12.888,28.786,28.786,28.786h21.548
		C311.225,101.183,298.341,88.295,298.341,72.397z"/>
</g>
<path style="fill:#C97E67;" d="M512,133.25v24.722c0,14.846-12.146,27.457-26.976,27.314c-11.141-0.113-20.652-7.054-24.537-16.834
	l-34.108,2.637c-2.597,0.201-4.678,2.222-4.944,4.813c-1.389,13.47-5.404,55.09-6.166,92.999
	c-0.162,8.062-1.606,16.049-4.292,23.652c-14.993,42.45-14.477,47.811-26.653,142.582c0.062,0.503,0.215,0.984,0.441,1.415
	c0.277,0.533,0.667,0.995,1.148,1.364l21.268,16.21c1.291,0.984,1.876,2.635,1.496,4.214l-3.495,14.59
	c-0.441,1.845-2.08,3.147-3.987,3.147h-38.211c-2.091,0-3.926-1.436-4.407-3.486l-5.74-27.815l-1.65-111.344
	c-0.471-1.989-2.214-3.414-4.254-3.475l-204.231-7.208c-1.2-0.041-2.368,0.39-3.249,1.22l-59.857,55.6
	c-0.84,0.78-1.948,1.21-3.095,1.21h-19.75c-2.508,0-4.54,2.032-4.54,4.54v55.592c0,0.738,0.185,1.456,0.522,2.092
	c0.297,0.595,0.738,1.127,1.291,1.538l10.505,7.884c0.831,0.626,1.435,1.528,1.681,2.522l3.874,15.502
	c0.707,2.861-1.445,5.629-4.397,5.629H28.401c-2.503,0-4.531-2.028-4.531-4.531V355.296c0-1.764,1.015-3.362,2.604-4.112
	l12.935-14.569c1.588-0.748,2.603-2.348,2.603-4.101v-61.783c0-36.951,27.468-68.129,64.1-72.783l85.275-9.392
	c22.265-23.393,51.981-25.494,65.735-26.643l63.444-5.25l44.178-54.682c0.41-0.507,1.026-0.801,1.677-0.801h52.637
	c7.851,0,15.364,3.138,20.889,8.695l6.396,6.449c5.524,5.557,13.048,8.684,20.878,8.684h36.539C508.31,125.01,512,128.7,512,133.25z
	"/>
<path style="fill:#E8C1B5;" d="M512,149.291v8.677c0,14.853-12.148,27.464-26.979,27.314c-11.134-0.108-20.652-7.049-24.533-16.836
	l-34.107,2.639c-2.597,0.201-4.678,2.224-4.944,4.814c-1.389,13.472-5.403,55.103-6.167,93.015
	c-0.162,8.052-1.606,16.028-4.29,23.627c-2.857,8.074-5.142,14.81-7.06,21.062c-32.855,3.147-56.989,16.352-56.989,16.352
	l-204.228-7.211c-1.196-0.043-2.371,0.388-3.244,1.218l8.912-8.572c13.774-13.249,31.973-20.92,51.076-21.528l105.811-3.365
	c34.533-1.098,63.908-25.512,71.302-59.262l7.483-34.155c6.113-27.903,30.827-47.787,59.391-47.787H512V149.291z"/>
<g>
	<path style="fill:#B06750;" d="M41.948,474.869V358.624c0-1.764,1.015-3.364,2.604-4.112l12.935-14.569
		c1.588-0.748,2.603-2.348,2.603-4.101v-61.783c0-29.671,21.462-62.303,48.882-76.427l-2.861,0.316
		c-36.632,4.655-64.1,35.833-64.1,72.783v61.783c0,1.753-1.015,3.352-2.603,4.101l-12.935,14.569
		c-1.588,0.748-2.603,2.348-2.603,4.112v116.245c0,2.503,2.028,4.532,4.531,4.532h13.73
		C42.024,475.687,41.948,475.288,41.948,474.869z"/>
	<path style="fill:#B06750;" d="M376.653,475.914l-5.74-27.815l-1.223-68.422c0.707-12.66,0.027-33.27-15.199-40.586l-3.23-0.523
		l1.574,106.206l5.74,27.815c0.482,2.05,2.317,3.486,4.407,3.486h13.723C376.691,476.018,376.666,475.969,376.653,475.914z"/>
</g>
<g>
	<path style="fill:#3F5666;" d="M65.689,476.073H28.401c-2.511,0-4.531-2.03-4.531-4.542v-24.237l28.862-4.296
		c0.297,0.595,0.738,1.127,1.291,1.538l10.505,7.884c0.831,0.626,1.435,1.528,1.681,2.522l3.874,15.502
		C70.793,473.305,68.64,476.073,65.689,476.073z"/>
	<path style="fill:#3F5666;" d="M408.675,458.336l-3.495,14.59c-0.441,1.845-2.08,3.147-3.987,3.147h-38.211
		c-2.091,0-3.926-1.436-4.407-3.486l-5.74-27.815l31.928-8.222c0.277,0.533,0.667,0.995,1.148,1.364l21.268,16.21
		C408.47,455.106,409.055,456.757,408.675,458.336z"/>
</g>
<circle style="fill:#7D4F40;" cx="423.884" cy="127.812" r="7.687"/>
<g>
</g>
<g>
</g>
<g>
</g>
<g>
</g>
<g>
</g>
<g>
</g>
<g>
</g>
<g>
</g>
<g>
</g>
<g>
</g>
<g>
</g>
<g>
</g>
<g>
</g>
<g>
</g>
<g>
</g>
</svg>
