<?xml version="1.0" encoding="iso-8859-1"?>
<!-- Generator: Adobe Illustrator 19.0.0, SVG Export Plug-In . SVG Version: 6.00 Build 0)  -->
<svg version="1.1" id="Layer_1" xmlns="http://www.w3.org/2000/svg" xmlns:xlink="http://www.w3.org/1999/xlink" x="0px" y="0px"
	 viewBox="0 0 511.999 511.999" style="enable-background:new 0 0 511.999 511.999;" xml:space="preserve">
<g>
	<path style="fill:#2F3F4A;" d="M398.471,127.262c0,0,11.179-33.545,34.132-25.052c13.349,4.939,19.873,17.633,6.124,35.85
		c-0.761,1.008-1.914,1.654-3.174,1.742l-36.379,2.533c-3.16,0.22-5.47-2.927-4.313-5.874L398.471,127.262z"/>
	<path style="fill:#2F3F4A;" d="M88.739,327.047l6.625,79.988c0.193,2.335,2.15,4.132,4.499,4.132h71.518
		c2.844,0,5.186-2.231,5.316-5.065l0.208-4.529c0.197-4.308-1.62-8.465-4.919-11.253l-10.615-8.968
		c-3.894-3.29-5.677-8.44-4.647-13.425l10.652-51.574L88.739,327.047z"/>
	<path style="fill:#2F3F4A;" d="M308.146,287.113l-30.338,84.825c-0.734,2.051,0.11,4.331,2.002,5.416l17.231,9.882
		c1.298,0.744,2.141,2.081,2.252,3.57l1.156,15.525c0.194,2.611-1.878,4.836-4.502,4.836h-66.314c-2.679,0-4.769-2.313-4.49-4.972
		l13.024-124.147L308.146,287.113z"/>
</g>
<path style="fill:#E1E9F2;" d="M452.116,267.763c-27.747,0.179-55.309-6.148-58.917-7.007c-0.257-0.061-0.52,0.001-0.727,0.164
	l-33.253,26.341c-0.237,0.188-0.358,0.486-0.319,0.785l10.547,81.512c0.181,1.441,1.05,2.702,2.336,3.389l21.739,11.651
	c1.343,0.72,2.224,2.06,2.359,3.568l1.636,18.089c0.237,2.634-1.852,4.908-4.504,4.908h-60.838c-1.975,0-3.714-1.272-4.311-3.141
	L301.2,324.368c-0.048-0.153-0.138-0.287-0.259-0.392l-21.431-18.402c-0.088-0.076-0.215-0.091-0.319-0.039
	c-47.342,23.687-73.631,55.437-126.38,50.22L9.245,341.539c-0.441-0.044-0.776-0.414-0.776-0.857v-77.535
	c0-69.579,56.549-125.975,126.316-125.975h229.063c0.112,0,0.22-0.021,0.323-0.063c3.026-1.242,50.61-20.234,87.187-1.471
	c0.09,0.046,0.174,0.108,0.246,0.18c20.456,20.485,22.79,46.789,23.01,50.181c0.016,0.238,0.126,0.449,0.313,0.597
	c13.663,10.746,40.82,29.772,36.64,50.894c-0.037,0.184-0.133,0.354-0.272,0.481l-12.26,11.274
	C486.237,261.008,469.509,267.65,452.116,267.763"/>
<path style="fill:#B3D2F2;" d="M88.56,145.873c-13.129,11.606-24.242,26.119-32.596,42.714
	c-7.416,14.709-12.676,31.055-15.285,48.457c-1.218,8.158-1.854,16.551-1.854,25.117v82.303l-14.174-1.401l-16.179-1.606v-78.316
	c0-10.484,1.283-20.667,3.708-30.409c0.01-0.032,0.022-0.053,0.022-0.075c2.544-10.237,6.349-19.977,11.242-29.062
	c0.323-0.592,0.647-1.185,0.97-1.767c0.108-0.183,0.215-0.377,0.312-0.56c0.302-0.517,0.604-1.034,0.906-1.541
	c0,0,0.013-0.007,0.018-0.011C39.879,175.42,62.019,156.286,88.56,145.873z"/>
<path style="fill:#3F5666;" d="M397.519,406.255c0.237,2.634-1.852,4.908-4.504,4.908h-60.838c-1.975,0-3.714-1.272-4.311-3.141
	l-26.368-82.721c-0.242-0.762-0.693-1.44-1.299-1.961l-20.736-17.805c-0.062-0.053-0.095-0.13-0.089-0.211
	c2.078-28.554-10.768-133.513-23.373-168.152h87.31c-16.541,73.938,9.634,97.044,15.528,150.391l10.61,81.995
	c0.181,1.441,1.05,2.702,2.336,3.389l21.739,11.651c1.343,0.72,2.224,2.06,2.359,3.568L397.519,406.255z"/>
<path style="fill:#2F3F4A;" d="M349.783,408.022l-24.993-78.407c-1.142-3.582-3.257-6.775-6.109-9.224l-8.483-7.284
	c-4.708-4.043-10.709-6.265-16.916-6.265h-12.298l19.215,16.499c0.606,0.52,1.056,1.2,1.299,1.961l26.368,82.721
	c0.599,1.869,2.336,3.141,4.311,3.141h21.917C352.119,411.163,350.38,409.892,349.783,408.022z"/>
<g>
	<path style="fill:#3F5666;" d="M469.645,167.327c-0.349-4.526-5.53-7.649-10.748-6.494c-13.939,3.083-37.402,13.134-34.275,45.802
		c4.413,46.1,32.78,9.538,40.66-5.828C470.426,190.772,470.33,176.219,469.645,167.327z"/>
	<path style="fill:#3F5666;" d="M25.631,199.731c-27.8,46.607-25.59,141.369-25.59,141.369v65.563c0,2.487,2.017,4.502,4.505,4.502
		h73.818c4.444,0,7.978-3.726,7.742-8.163l-0.367-6.886c-0.203-3.812-2.22-7.295-5.426-9.369l-0.008-0.005
		c-5.037-3.258-6.869-9.75-4.279-15.16l3.747-7.824c0,0,40.459-57.815,62.469-67.007c4.072-1.7,7.175-5.123,8.285-9.393
		c3.115-11.983,4.744-36.286-17.896-67.118C88.739,160.473,25.631,199.731,25.631,199.731z"/>
</g>
<path style="fill:#2F3F4A;" d="M24.651,343.065c0,40.473,0,63.597,0,63.597c0,2.489,2.016,4.505,4.495,4.505H4.548
	c-2.49,0-4.506-2.015-4.506-4.505v-65.558c0,0-1.401-60.321,12.138-108.37c0.01-0.032,0.022-0.053,0.022-0.075
	c2.975-10.539,6.661-20.474,11.242-29.062c0.323-0.592,0.647-1.185,0.97-1.767c0.108-0.183,0.215-0.377,0.312-0.56
	c0.302-0.517,0.604-1.034,0.906-1.541c0,0,12.547-7.801,30.332-11.142c-7.416,14.709-31.312,85.58-31.312,152.516v1.961H24.651z"/>
<path style="fill:#3F5666;" d="M375.206,137.172c0,0,2.871-35.234,27.188-32.42c14.142,1.636,23.503,12.42,14.487,33.371
	c-0.499,1.162-1.467,2.064-2.673,2.448l-34.74,11.078c-3.016,0.961-6.005-1.545-5.583-4.681L375.206,137.172z"/>
<g>
</g>
<g>
</g>
<g>
</g>
<g>
</g>
<g>
</g>
<g>
</g>
<g>
</g>
<g>
</g>
<g>
</g>
<g>
</g>
<g>
</g>
<g>
</g>
<g>
</g>
<g>
</g>
<g>
</g>
</svg>
