<?xml version="1.0" encoding="iso-8859-1"?>
<!-- Generator: Adobe Illustrator 19.0.0, SVG Export Plug-In . SVG Version: 6.00 Build 0)  -->
<svg version="1.1" id="Layer_1" xmlns="http://www.w3.org/2000/svg" xmlns:xlink="http://www.w3.org/1999/xlink" x="0px" y="0px"
	 viewBox="0 0 512.001 512.001" style="enable-background:new 0 0 512.001 512.001;" xml:space="preserve">
<path style="fill:#D1C1A1;" d="M382.772,11.422c-16.408,28.699-62.296,118.941-13.127,154.409c2.261,1.631,5.436,0.981,6.871-1.409
	c9.428-15.697,39.368-74.34,14.919-152.078C390.193,8.397,384.826,7.83,382.772,11.422z"/>
<path style="fill:#F2E5CB;" d="M123.19,375.319c27.948,94.168,122.119,111.158,122.119,111.158
	c137.036-36.789,148.042-173.812,148.042-173.812c29.092,9.462,53.09-22.349,77.76-41.383c5.863-4.519,10.061-9.772,12.732-15.371
	c8.285-17.37,1.876-38.08-15.08-50.757c-0.547-0.422-1.106-0.819-1.677-1.216c-23.887-16.476-32.396-63.806-94.243-66.935
	c-53.674-2.719-66.058,43.22-66.058,43.22s-28.955,40.886-138.874,56.009C167.91,236.232,95.242,281.151,123.19,375.319z"/>
<path style="fill:#D1C1A1;" d="M143.938,383.678c-27.948-94.168,44.72-139.087,44.72-139.087
	c101.668-13.987,134.071-50.015,138.363-55.346c0.324-0.402,0.56-0.852,0.716-1.344c1.796-5.688,16.049-45.063,65.855-42.54
	c7.354,0.372,13.946,1.375,19.907,2.871c-10.421-6.08-23.479-10.361-40.656-11.231c-53.674-2.719-66.058,43.22-66.058,43.22
	s-28.955,40.886-138.874,56.009c0,0-72.667,44.918-44.721,139.087c20.919,70.486,78.937,97.729,106.799,106.976
	C200.295,468.168,160.495,439.469,143.938,383.678z"/>
<path style="fill:#E8C1B5;" d="M483.843,255.912c-1.851-1.093-3.876-2.495-6.099-4.272c-21.887-17.445-18.012-34.231-8.981-46.485
	C485.718,217.832,492.129,238.542,483.843,255.912z"/>
<path style="fill:#D1C1A1;" d="M347.544,488.23v10.971c0,2.738-2.226,4.963-4.963,4.963H225.396
	c-145.492,0-177.716-69.475-177.716-136.673c0-68.598,52.652-124.907,119.766-130.759c3.803-0.334,7.659-0.502,11.557-0.502
	c72.537,0,131.323,58.765,131.323,131.26c0,60.876-40.709,101.282-40.709,101.282h58.462
	C338.83,468.774,347.544,477.499,347.544,488.23z"/>
<path style="fill:#E0CFAD;" d="M347.603,368.705c2.814-2.53,7.271-0.324,6.96,3.446c-1.804,21.825-4.406,71.061,6.975,87.346
	c7.82,11.189,15.087,15.875,19.175,21.593c6.898,9.648-0.235,23.074-12.096,23.074H340.61c-9.101,0-17.021-6.226-19.171-15.07
	l-11.987-49.315c-4.517-18.586,1.535-38.15,15.757-50.939L347.603,368.705z"/>
<path id="SVGCleanerId_0" style="fill:#F2E5CB;" d="M298.575,12.037c-5.384,34.119-16.739,139.285,44.452,155.714
	c2.814,0.755,5.674-1.056,6.19-3.923c3.388-18.83,10.884-87.216-41.837-154.101C304.703,6.33,299.249,7.765,298.575,12.037z"/>
<g>
	<path id="SVGCleanerId_0_1_" style="fill:#F2E5CB;" d="M298.575,12.037c-5.384,34.119-16.739,139.285,44.452,155.714
		c2.814,0.755,5.674-1.056,6.19-3.923c3.388-18.83,10.884-87.216-41.837-154.101C304.703,6.33,299.249,7.765,298.575,12.037z"/>
</g>
<path style="fill:#E8C1B5;" d="M310.643,57.52c-1.597,19.954-4.06,81.553,25.08,92.292c1.341,0.494,2.632-0.52,2.796-2.195
	c1.076-11.006,2.73-51.059-23.809-91.297C313.36,54.275,310.842,55.023,310.643,57.52z"/>
<path style="fill:#E3D2AF;" d="M347.544,488.23v10.971c0,2.738-2.226,4.963-4.963,4.963H202.272
	c-145.492,0-177.716-69.475-177.716-136.673c0-72.495,58.796-131.26,131.323-131.26c3.897,0,7.753,0.167,11.567,0.502
	c67.114,5.851,119.756,62.161,119.756,130.759c0,60.876-40.709,101.282-40.709,101.282h81.586
	C338.83,468.774,347.544,477.499,347.544,488.23z"/>
<path style="fill:#B0A387;" d="M45.454,367.492c0-68.982,53.229-125.527,120.874-130.849c-3.447-0.272-6.932-0.414-10.449-0.414
	c-72.531,0-131.323,58.765-131.323,131.262c0,67.195,32.225,136.673,177.714,136.673h20.898
	C77.679,504.165,45.454,434.687,45.454,367.492z"/>
<path d="M429.241,296.363c-13.079,9.393-23.395,12.123-33.442,8.85c-2.279-0.742-4.775-0.4-6.774,0.931
	c-1.996,1.331-3.273,3.504-3.465,5.894c-0.034,0.423-3.123,35.792-24.11,74.533c0.751-13.785,1.904-23.98,1.922-24.143
	c0.493-4.3-2.593-8.186-6.893-8.678c-4.289-0.489-8.185,2.591-8.679,6.891c-0.128,1.111-3.116,27.492-2.6,53.95
	c0.474,24.36,3.723,40.516,9.928,49.392c5.032,7.201,9.818,11.895,13.663,15.668c2.304,2.26,4.293,4.211,5.569,5.997
	c2.101,2.94,1.023,5.793,0.461,6.883c-1.224,2.377-3.535,3.797-6.184,3.797h-13.238v-8.094c0-15.049-12.247-27.293-27.302-27.293
	h-5.42l-1.997-8.216c-0.009-0.043-0.021-0.085-0.031-0.127L309.75,407.75c-1.023-4.206-5.254-6.788-9.467-5.765
	c-4.206,1.023-6.786,5.26-5.765,9.466l9.653,39.722c-5.067,3.506-10.359,6.772-15.803,9.769h-25.133
	c12.764-17.317,31.813-50.375,31.813-93.451c0-59.266-37.279-109.985-89.626-129.984c16.916-3.756,32.511-8.364,46.603-13.797
	c4.039-1.557,6.051-6.093,4.494-10.131c-1.557-4.037-6.091-6.05-10.131-4.493c-22.587,8.707-49.351,15.227-79.547,19.381
	c-0.405,0.055-0.801,0.154-1.191,0.272c-3.229-0.225-6.485-0.348-9.769-0.348c-30.134,0-58.81,9.469-82.929,27.383
	c-23.644,17.561-40.836,41.603-49.719,69.524c-1.311,4.124,0.969,8.532,5.093,9.843c4.122,1.312,8.532-0.968,9.844-5.093
	c7.767-24.417,23.439-46.327,44.128-61.693c21.396-15.892,46.841-24.291,73.583-24.291c68.094,0,123.492,55.369,123.492,123.426
	c0,56.7-38.02,95.352-38.394,95.726c-2.253,2.237-2.934,5.612-1.724,8.547c1.21,2.935,4.072,4.85,7.246,4.85h81.597
	c6.411,0,11.629,5.212,11.629,11.619v8.096H202.279c-33.812,0-62.999-3.879-86.748-11.528
	c-21.011-6.768-38.233-16.647-51.184-29.365c-21.501-21.113-31.954-49.88-31.954-87.944c0-4.328-3.509-7.837-7.837-7.837
	s-7.837,3.509-7.837,7.837c0,41.898,12.329,75.25,36.647,99.127c30.669,30.114,80.771,45.383,148.914,45.383h138.354h1.961h26.043
	c8.508,0,16.217-4.712,20.122-12.298c3.849-7.479,3.219-16.356-1.645-23.167c-2.075-2.903-4.636-5.415-7.347-8.073
	c-3.559-3.491-7.593-7.448-11.793-13.457c-2.346-3.355-6.304-12.737-7.041-38.12c27.375-38.109,36.36-77.685,39.118-94.851
	c15.818,1.539,29.159-6.352,38.331-12.94c3.515-2.526,4.319-7.422,1.794-10.937C437.652,294.64,432.755,293.838,429.241,296.363z"/>
<path d="M495.279,239.545c-0.001-0.113,0.003-0.225,0.001-0.338c-0.007-0.397-0.03-0.794-0.048-1.192
	c-0.013-0.287-0.018-0.575-0.036-0.862c-0.017-0.256-0.045-0.512-0.066-0.769c-0.034-0.427-0.065-0.855-0.11-1.281
	c-0.017-0.152-0.041-0.301-0.059-0.452c-0.063-0.531-0.128-1.061-0.208-1.589c-0.013-0.085-0.031-0.168-0.044-0.252
	c-0.094-0.595-0.195-1.189-0.312-1.782c-0.003-0.016-0.007-0.03-0.01-0.045c-0.936-4.71-2.596-9.33-4.935-13.713
	c-0.001-0.003-0.003-0.005-0.004-0.008c-0.333-0.625-0.68-1.244-1.042-1.859c-0.023-0.04-0.049-0.078-0.073-0.118
	c-0.341-0.576-0.691-1.148-1.055-1.715c-0.057-0.09-0.121-0.178-0.18-0.267c-0.335-0.514-0.676-1.027-1.031-1.533
	c-0.093-0.133-0.193-0.261-0.287-0.393c-0.328-0.459-0.658-0.917-1.003-1.369c-0.141-0.185-0.292-0.365-0.436-0.549
	c-0.308-0.393-0.614-0.787-0.934-1.173c-0.2-0.24-0.411-0.475-0.614-0.713c-0.277-0.323-0.55-0.648-0.835-0.967
	c-0.261-0.29-0.535-0.574-0.802-0.86c-0.241-0.258-0.478-0.52-0.725-0.775c-0.327-0.336-0.667-0.664-1.004-0.994
	c-0.202-0.197-0.397-0.399-0.602-0.595c-0.402-0.381-0.817-0.754-1.233-1.127c-0.152-0.136-0.297-0.276-0.449-0.41
	c-0.48-0.422-0.974-0.834-1.471-1.243c-0.097-0.08-0.19-0.163-0.287-0.242c-0.557-0.452-1.127-0.895-1.706-1.332
	c-0.042-0.031-0.081-0.065-0.124-0.097c-0.003-0.002-0.006-0.005-0.009-0.007c-0.021-0.016-0.042-0.032-0.063-0.049
	c-0.007-0.005-0.016-0.01-0.023-0.016c-0.6-0.464-1.22-0.907-1.896-1.382c-6.27-4.32-11.624-11.57-17.824-19.967
	c-11.775-15.948-26.183-35.448-54.803-44.06c9.611-29.35,16.022-72.491-0.003-123.448c-1.49-4.768-5.664-8.199-10.637-8.742
	c-4.988-0.543-9.817,1.915-12.311,6.27c-7.709,13.494-19.487,36.146-27.515,60.983c-6.939-20.322-17.911-42.067-34.916-63.642
	c-3.145-3.993-8.362-5.741-13.282-4.455c-4.929,1.286-8.627,5.366-9.421,10.393l0,0c-2.852,18.069-7.003,53.361-2.773,86.7
	c2.44,19.228,7.382,35.29,14.691,47.741c2.379,4.054,5.017,7.729,7.892,11.037c-6.542,8.58-9.734,16.733-10.896,20.183
	c-1.792,2.096-7.27,7.929-18.17,15.047c-3.625,2.367-4.644,7.222-2.277,10.846c1.504,2.302,4.01,3.553,6.568,3.553
	c1.469,0,2.956-0.413,4.278-1.277c16.173-10.562,22.377-18.966,23.031-19.89c0.519-0.735,0.919-1.588,1.161-2.454
	c0.025-0.089,2.125-7.415,8.025-15.51c5.605,3.841,11.819,6.7,18.635,8.531c1.088,0.293,2.203,0.436,3.311,0.436
	c2.415,0,4.809-0.679,6.876-1.993c3.019-1.915,5.113-5.031,5.745-8.547c0.79-4.391,1.768-11.209,2.245-19.903
	c4.212-0.546,8.648-0.714,13.266-0.478c5.136,0.262,10.075,0.868,14.675,1.797c28.596,5.792,41.506,23.279,53.993,40.191
	c5.557,7.526,10.863,14.705,17.24,20.224c-9.275,17.63-4.218,35.792,14.51,50.718c0.157,0.125,0.31,0.238,0.466,0.36
	c-1.919,2.507-4.25,4.836-6.999,6.953c-2.139,1.653-4.374,3.473-7.035,5.728c-3.301,2.798-3.709,7.744-0.911,11.045
	c1.551,1.829,3.76,2.77,5.983,2.77c1.79,0,3.59-0.61,5.064-1.859c2.476-2.099,4.538-3.778,6.475-5.276
	c6.604-5.086,11.626-11.158,14.933-18.039c0.028-0.055,0.062-0.107,0.089-0.163C493.951,252.972,495.355,246.257,495.279,239.545z
	 M303.625,95.537c-3.519-27.741-0.835-57.204,1.716-75.592c21.253,28.771,31.281,57.507,35.603,81.88
	c0.036,0.369,0.102,0.728,0.187,1.08c2.046,11.939,2.731,22.806,2.706,32.079c-0.037,0.063-0.074,0.124-0.11,0.188
	c-0.061,0.111-0.114,0.226-0.17,0.34c-0.054,0.112-0.112,0.223-0.161,0.336c-0.049,0.114-0.091,0.231-0.135,0.348
	c-0.045,0.119-0.092,0.237-0.131,0.358c-0.038,0.118-0.068,0.237-0.099,0.357c-0.033,0.124-0.069,0.247-0.097,0.372
	c-0.026,0.121-0.044,0.244-0.065,0.368c-0.022,0.126-0.045,0.253-0.061,0.381c-0.015,0.125-0.021,0.251-0.029,0.377
	c-0.008,0.129-0.02,0.257-0.023,0.388c-0.002,0.129,0.004,0.257,0.008,0.387s0.005,0.258,0.016,0.388
	c0.01,0.131,0.031,0.261,0.048,0.393c0.017,0.13,0.031,0.258,0.055,0.388c0.024,0.13,0.057,0.258,0.088,0.387
	c0.025,0.109,0.043,0.216,0.073,0.325c0.007,0.024,0.017,0.047,0.024,0.071c0.006,0.023,0.01,0.046,0.017,0.069
	c0.185,0.613,0.368,1.191,0.552,1.741c-0.316,6.661-0.959,12.192-1.588,16.311C321,152.06,308.08,130.645,303.625,95.537z
	 M359.416,129.509c-0.219-8.563-1.01-18.156-2.74-28.498c4.5-30.052,20.04-62.133,29.365-79.322
	c12.398,44.94,6.159,82.738-2.53,108.461c-3.331-0.457-6.75-0.793-10.25-0.972C368.507,128.936,363.881,129.055,359.416,129.509z
	 M470.715,217.577c0.044,0.051,0.09,0.1,0.134,0.152c0.281,0.328,0.554,0.659,0.822,0.994c0.086,0.106,0.174,0.21,0.258,0.317
	c0.353,0.449,0.696,0.903,1.025,1.361c0.043,0.06,0.083,0.12,0.124,0.18c0.281,0.396,0.554,0.795,0.818,1.199
	c0.093,0.142,0.181,0.285,0.272,0.428c0.208,0.327,0.411,0.655,0.607,0.985c0.096,0.162,0.19,0.325,0.283,0.488
	c0.185,0.322,0.363,0.647,0.537,0.973c0.086,0.161,0.172,0.322,0.255,0.484c0.182,0.354,0.355,0.711,0.524,1.068
	c0.063,0.132,0.127,0.262,0.188,0.394c0.226,0.493,0.442,0.99,0.643,1.489c0.001,0.003,0.002,0.006,0.003,0.009
	c0.196,0.489,0.379,0.98,0.552,1.474c0.055,0.158,0.106,0.317,0.158,0.475c0.114,0.342,0.225,0.683,0.327,1.027
	c0.056,0.189,0.109,0.378,0.162,0.567c0.089,0.318,0.172,0.636,0.252,0.955c0.049,0.197,0.097,0.395,0.142,0.592
	c0.073,0.322,0.139,0.646,0.203,0.969c0.037,0.189,0.076,0.377,0.11,0.566c0.068,0.382,0.124,0.766,0.178,1.15
	c0.018,0.127,0.041,0.255,0.056,0.382c0.063,0.492,0.111,0.985,0.149,1.477c0.016,0.203,0.023,0.405,0.036,0.609
	c0.018,0.304,0.033,0.608,0.043,0.911c0.006,0.231,0.007,0.462,0.008,0.693c0.001,0.276,0,0.552-0.006,0.828
	c-0.005,0.24-0.014,0.48-0.025,0.719c-0.013,0.27-0.031,0.538-0.051,0.806c-0.011,0.162-0.025,0.324-0.04,0.486
	C468.768,232.97,468.19,224.415,470.715,217.577z"/>
<circle cx="423.111" cy="190.246" r="7.837"/>
<g>
</g>
<g>
</g>
<g>
</g>
<g>
</g>
<g>
</g>
<g>
</g>
<g>
</g>
<g>
</g>
<g>
</g>
<g>
</g>
<g>
</g>
<g>
</g>
<g>
</g>
<g>
</g>
<g>
</g>
</svg>
