<?xml version="1.0" encoding="iso-8859-1"?>
<!-- Generator: Adobe Illustrator 19.0.0, SVG Export Plug-In . SVG Version: 6.00 Build 0)  -->
<svg version="1.1" id="Layer_1" xmlns="http://www.w3.org/2000/svg" xmlns:xlink="http://www.w3.org/1999/xlink" x="0px" y="0px"
	 viewBox="0 0 511.999 511.999" style="enable-background:new 0 0 511.999 511.999;" xml:space="preserve">
<path style="fill:#3F5666;" d="M286.155,299.372l-26.016,72.869c-0.629,1.762,0.094,3.721,1.717,4.653l14.776,8.489
	c1.113,0.639,1.836,1.788,1.931,3.067l0.992,13.337c0.167,2.243-1.61,4.155-3.861,4.155h-56.868c-2.298,0-4.09-1.987-3.85-4.271
	l11.168-106.65L286.155,299.372z"/>
<path style="fill:#486978;" d="M61.363,172.338c0,0-48.261,28.417-61.007,72.21c-1.396,4.794,1.452,9.802,6.252,11.193l0,0
	c4.046,1.171,8.376-0.566,10.456-4.225c7.114-12.512,25.885-39.78,57.006-45.684C114.773,198.11,88.844,157.376,61.363,172.338z"/>
<path style="fill:#3F5666;" d="M110.578,309.576l5.681,92.816c0.166,2.006,1.844,3.55,3.859,3.55h61.329
	c2.44,0,4.447-1.916,4.559-4.351l0.178-3.89c0.169-3.701-1.389-7.271-4.218-9.667l-9.102-7.704
	c-3.339-2.826-4.868-7.249-3.985-11.533l9.135-68.407L110.578,309.576z"/>
<g>
	<path style="fill:#628FA3;" d="M510.846,206.086l-2.954,18.813c-0.172,1.078-0.744,2.039-1.584,2.719
		c-11.447,9.234-33.328,12.697-33.328,12.697l-84.108-4.616l-59.242,64.054l9.098,70.451c0.15,1.23,0.894,2.308,2.005,2.902
		l18.637,10.01c1.154,0.626,1.908,1.781,2.016,3.064l1.412,15.544c0.194,2.265-1.596,4.218-3.869,4.218h-52.17
		c-1.693,0-3.18-1.089-3.697-2.697l-22.927-72.058c0,0-64.954-11.575-110.237-16.062l-25.73,1.748l-14.379,0.971
		c-18.27,17.022-39.472,47.378-39.472,47.378l-3.222,6.731c-0.679,1.413-1.002,2.924-1.002,4.401c0,3.377,1.671,6.656,4.678,8.608
		c2.76,1.781,4.484,4.779,4.668,8.058l0.312,5.933c0.205,3.797-2.835,6.99-6.64,6.99H25.815c-2.135,0-3.869-1.737-3.869-3.872
		v-56.32c0,0-1.014-58.931,7.685-106.374c3.072-16.763,7.351-32.092,13.312-42.879c0.312-0.572,0.625-1.122,0.949-1.661
		c18.777-32.146,53.668-53.742,93.604-53.742h168.076c5.994-7.044,14.928-11.521,24.91-11.521c9.97,0,99.856,19.643,99.856,19.643
		c11.016,1.597,21.094,7.098,28.37,15.523l16.092,18.608c9.173,7.26,26.494,15.091,33.5,18.123
		C510.114,202.246,511.148,204.144,510.846,206.086z"/>
	<path style="fill:#628FA3;" d="M29.631,239.375c1.412-15.458,6.069-29.989,13.312-42.879
		C36.982,207.283,32.703,222.612,29.631,239.375z"/>
	<path style="fill:#628FA3;" d="M314.478,133.763L314.478,133.763L314.478,133.763z"/>
</g>
<g>
	<path style="fill:#476775;" d="M325.16,403.24l-18.385-57.769c-2.66-8.359-10.564-13.917-19.322-13.57
		c-2.154,0.086-4.5,0.17-7.013,0.252l22.623,71.088c0.517,1.607,2.006,2.696,3.697,2.696h22.096
		C327.165,405.936,325.677,404.847,325.16,403.24z"/>
	<path style="fill:#476775;" d="M196.91,212.995c-5.807,42.279-27.013,102.129-27.013,102.129l-25.73,1.748
		c10.155-27.627,30.585-86.581,32.307-118.296c0.124-2.285,2.014-4.065,4.3-4.065l0,0
		C190.64,194.512,198.254,203.214,196.91,212.995z"/>
</g>
<ellipse style="fill:#3F5666;" cx="435.681" cy="186.638" rx="8.084" ry="8.091"/>
<path style="fill:#476775;" d="M123.981,141.928c-34.212,4.254-63.45,24.461-80.08,52.922l-0.014-0.015
	c-0.315,0.529-0.622,1.075-0.928,1.628c-7.243,12.903-11.92,27.436-13.331,42.915c-8.69,47.449-7.686,106.372-7.686,106.372v56.322
	c0,2.137,1.733,3.868,3.871,3.868h22.096c-2.138,0-3.871-1.731-3.871-3.868V345.75c0,0-0.165-9.744,0.222-24.488l0,0l5.226-67.975
	c0.001-0.011,0.003-0.023,0.004-0.034c1.983-14.016,4.677-27.64,8.33-39.232C70.029,179.128,93.412,156.801,123.981,141.928z"/>
<g>
	<path style="fill:#E1E9F2;" d="M474.308,192.554l28.071-64.727c2.165-4.993,9.623-3.45,9.619,1.992
		c-0.016,24.18-0.326,60.175-1.903,76.413c-0.252,2.599-2.489,4.548-5.102,4.508c-17.384-0.272-26.464-8.708-30.003-13.063
		C473.82,196.235,473.57,194.258,474.308,192.554z"/>
	<path style="fill:#E1E9F2;" d="M427.577,151.663l26.497-43.837c2.044-3.381,7.259-1.546,6.727,2.368
		c-2.366,17.393-6.094,43.259-8.808,54.787c-0.435,1.845-2.234,3.03-4.11,2.747c-12.48-1.885-18.191-8.837-20.313-12.314
		C426.868,154.263,426.879,152.817,427.577,151.663z"/>
</g>
<path style="fill:#628FA3;" d="M397.763,150.768c0,0,5.794-20.718,0.675-39.5c-1.044-3.827-6.037-4.801-8.48-1.673
	c-6.428,8.235-16.797,22.885-20.69,36.144c-0.694,2.363,0.451,4.863,2.714,5.841C376.691,153.617,385.723,155.804,397.763,150.768z"
	/>
<path style="fill:#486978;" d="M394.366,145.732c0,0,3.471-12.411,0.404-23.663c-0.625-2.294-3.617-2.877-5.08-1.002
	c-3.85,4.933-10.062,13.709-12.394,21.652c-0.416,1.415,0.271,2.913,1.625,3.499C381.742,147.438,387.154,148.748,394.366,145.732z"
	/>
<g>
</g>
<g>
</g>
<g>
</g>
<g>
</g>
<g>
</g>
<g>
</g>
<g>
</g>
<g>
</g>
<g>
</g>
<g>
</g>
<g>
</g>
<g>
</g>
<g>
</g>
<g>
</g>
<g>
</g>
</svg>
