<?xml version="1.0" encoding="iso-8859-1"?>
<!-- Generator: Adobe Illustrator 19.0.0, SVG Export Plug-In . SVG Version: 6.00 Build 0)  -->
<svg version="1.1" id="Layer_1" xmlns="http://www.w3.org/2000/svg" xmlns:xlink="http://www.w3.org/1999/xlink" x="0px" y="0px"
	 viewBox="0 0 512.001 512.001" style="enable-background:new 0 0 512.001 512.001;" xml:space="preserve">
<g>
	<path style="fill:#FBB071;" d="M232.312,177.053L232.312,177.053c-13.029,0-23.689-10.66-23.689-23.689v-48.085
		c0-13.029,10.66-23.689,23.689-23.689l0,0c13.029,0,23.689,10.66,23.689,23.689v48.085
		C256.001,166.392,245.34,177.053,232.312,177.053z"/>
	<path style="fill:#FBB071;" d="M279.689,177.053L279.689,177.053c-13.029,0-23.689-10.66-23.689-23.689v-48.085
		c0-13.029,10.66-23.689,23.689-23.689l0,0c13.029,0,23.689,10.66,23.689,23.689v48.085
		C303.379,166.392,292.719,177.053,279.689,177.053z"/>
</g>
<g>
	<path style="fill:#CC894F;" d="M229.644,153.363v-48.085c0-9.259,5.386-17.317,13.178-21.208
		c-3.172-1.584-6.742-2.482-10.511-2.482l0,0c-13.029,0-23.689,10.66-23.689,23.689v48.085c0,13.029,10.66,23.689,23.689,23.689l0,0
		c3.77,0,7.338-0.898,10.511-2.482C235.03,170.681,229.644,162.623,229.644,153.363z"/>
	<path style="fill:#CC894F;" d="M277.023,153.363v-48.085c0-9.259,5.386-17.317,13.178-21.208
		c-3.172-1.584-6.742-2.482-10.511-2.482l0,0c-13.029,0-23.689,10.66-23.689,23.689v48.085c0,13.029,10.66,23.689,23.689,23.689l0,0
		c3.77,0,7.338-0.898,10.511-2.482C282.409,170.681,277.023,162.623,277.023,153.363z"/>
</g>
<g>
	<path style="fill:#7D4F40;" d="M100.442,504.163c-8.563,0-15.505-6.945-15.505-15.513V308.052c0-5.628,3.046-10.815,7.96-13.552
		l119.027-66.328c7.483-4.167,16.923-1.481,21.09,6.004c4.166,7.485,1.48,16.933-6.001,21.102l-111.066,61.891v171.482
		C115.947,497.218,109.005,504.163,100.442,504.163z"/>
	<path style="fill:#7D4F40;" d="M43.196,409.726c-8.563,0-15.505-6.945-15.505-15.513v-130.66c0-7.137,4.867-13.353,11.793-15.061
		l173.385-42.782c8.314-2.051,16.716,3.028,18.766,11.348c2.05,8.318-3.028,16.725-11.341,18.777L58.7,275.707v118.508
		C58.7,402.781,51.758,409.726,43.196,409.726z"/>
	<path style="fill:#7D4F40;" d="M219.463,198.765c-3.611,0-7.238-1.255-10.175-3.814l-68.487-59.665
		c-3.381-2.947-5.323-7.213-5.323-11.7V23.349c0-8.567,6.942-15.513,15.505-15.513s15.505,6.945,15.505,15.513v93.176l63.164,55.027
		c6.457,5.626,7.135,15.425,1.511,21.886C228.098,196.961,223.792,198.765,219.463,198.765z"/>
	<path style="fill:#7D4F40;" d="M219.476,217.861c-1.456,0-2.934-0.207-4.401-0.641L73.834,175.456
		c-6.589-1.948-11.11-8.003-11.11-14.876V63.922c0-8.567,6.942-15.513,15.505-15.513s15.505,6.945,15.505,15.513v85.066
		l130.131,38.48c8.212,2.428,12.901,11.057,10.474,19.273C232.345,213.49,226.17,217.861,219.476,217.861z"/>
</g>
<g>
	<path style="fill:#C97E67;" d="M411.559,504.163c8.563,0,15.505-6.945,15.505-15.513V308.052c0-5.628-3.046-10.815-7.96-13.552
		l-119.027-66.328c-7.483-4.167-16.923-1.481-21.09,6.004c-4.166,7.485-1.48,16.933,6.001,21.102l111.067,61.891v171.482
		C396.054,497.218,402.996,504.163,411.559,504.163z"/>
	<path style="fill:#C97E67;" d="M468.805,409.726c8.563,0,15.505-6.945,15.505-15.513v-130.66c0-7.137-4.867-13.353-11.793-15.061
		l-173.385-42.783c-8.314-2.051-16.716,3.028-18.766,11.348c-2.05,8.318,3.028,16.725,11.341,18.777l161.593,39.872v118.508
		C453.301,402.781,460.243,409.726,468.805,409.726z"/>
	<path style="fill:#C97E67;" d="M292.538,198.765c3.611,0,7.238-1.255,10.175-3.814l68.487-59.665
		c3.381-2.947,5.323-7.213,5.323-11.7V23.349c0-8.567-6.942-15.513-15.505-15.513s-15.505,6.945-15.505,15.513v93.176
		l-63.164,55.027c-6.457,5.626-7.135,15.425-1.511,21.886C283.903,196.961,288.21,198.765,292.538,198.765z"/>
	<path style="fill:#C97E67;" d="M292.525,217.861c1.456,0,2.934-0.207,4.401-0.641l141.241-41.766
		c6.589-1.948,11.11-8.003,11.11-14.876V63.922c0-8.567-6.942-15.513-15.505-15.513s-15.505,6.945-15.505,15.513v85.066
		l-130.131,38.48c-8.212,2.428-12.901,11.057-10.474,19.273C279.656,213.49,285.831,217.861,292.525,217.861z"/>
	<path style="fill:#C97E67;" d="M288.164,308.052h-64.326c-18.159,0-33.017-14.857-33.017-33.017v-81.176
		c0-33.202,27.165-60.367,60.367-60.367h9.626c33.202,0,60.367,27.165,60.367,60.367v81.176
		C321.181,293.193,306.323,308.052,288.164,308.052z"/>
</g>
<path style="fill:#B06750;" d="M211.846,267.624v-73.766c0-31.279,24.113-57.191,54.667-60.089c-1.878-0.178-3.777-0.279-5.7-0.279
	h-9.626c-33.202,0-60.367,27.165-60.367,60.367v81.176c0,2.566,0.306,5.064,0.867,7.466
	C197.68,276.677,204.455,271.659,211.846,267.624z"/>
<ellipse style="fill:#FBB071;" cx="256.001" cy="348.766" rx="92.327" ry="92.369"/>
<path style="fill:#CC894F;" d="M184.704,348.763c0-47.457,35.773-86.548,81.809-91.77c-3.451-0.392-6.957-0.6-10.513-0.6
	c-50.988,0-92.323,41.355-92.323,92.37s41.334,92.37,92.323,92.37c3.556,0,7.062-0.208,10.513-0.6
	C220.476,435.311,184.704,396.22,184.704,348.763z"/>
<path d="M474.391,240.878l-50.594-12.487c-4.198-1.037-8.448,1.529-9.487,5.73c-1.037,4.202,1.529,8.449,5.731,9.487l50.59,12.485
	c3.44,0.851,5.842,3.918,5.842,7.46v130.654c0,4.235-3.44,7.68-7.67,7.68c-4.23,0-7.67-3.445-7.67-7.68V275.707
	c0-3.605-2.46-6.745-5.959-7.609l-120.869-29.825l-5.289-2.942v-14.173l53.984,13.318c0.63,0.156,1.262,0.23,1.883,0.23
	c3.521,0,6.722-2.39,7.603-5.961c1.037-4.203-1.53-8.449-5.731-9.486l-37.651-9.289l91.294-26.998
	c9.841-2.92,16.715-12.129,16.715-22.392V63.927c0-12.877-10.472-23.353-23.343-23.353c-12.871,0-23.343,10.476-23.343,23.353
	v79.211l-54.969,16.254l20.889-18.197c5.091-4.43,8.01-10.847,8.01-17.603V23.353C384.356,10.476,373.889,0,361.023,0
	c-12.871,0-23.343,10.476-23.343,23.353v89.607l-26.467,23.057v-30.744c0-8.394-3.286-16.302-9.254-22.27s-13.877-9.254-22.27-9.254
	c-9.438,0-17.914,4.174-23.696,10.768c-0.453-0.515-0.918-1.023-1.409-1.513c-5.967-5.967-13.876-9.255-22.27-9.255
	c-17.383,0-31.525,14.142-31.525,31.525v30.744l-26.467-23.057V23.353C174.321,10.476,163.85,0,150.978,0
	c-12.866,0-23.333,10.476-23.333,23.353v100.237c0,6.757,2.919,13.173,8.007,17.6l20.882,18.196l-54.96-16.249V63.927
	c0-12.877-10.471-23.353-23.343-23.353S54.889,51.05,54.889,63.927v24.545c0,4.328,3.509,7.837,7.837,7.837s7.837-3.509,7.837-7.837
	V63.927c0-4.235,3.441-7.68,7.67-7.68s7.67,3.445,7.67,7.68v85.065c0,3.472,2.285,6.531,5.615,7.515l92.245,27.277
	c-0.499,3.332-0.778,6.702-0.778,10.076v5.706l-106.92-31.62c-3.239-0.961-5.5-3.99-5.5-7.367V133.13
	c0-4.328-3.509-7.837-7.837-7.837s-7.837,3.509-7.837,7.837v27.449c0,10.263,6.873,19.472,16.722,22.394l91.285,26.996
	L37.605,240.879c-10.452,2.586-17.752,11.911-17.752,22.675v130.654c0,12.877,10.471,23.353,23.343,23.353
	s23.343-10.476,23.343-23.353V281.845l59.159-14.597l-36.617,20.406c-7.388,4.126-11.978,11.941-11.978,20.394v180.6
	c0,12.877,10.471,23.353,23.343,23.353c12.866,0,23.333-10.476,23.333-23.353V321.773l47.566-26.504
	c-9.813,15.489-15.503,33.838-15.503,53.494c0,55.254,44.931,100.207,100.159,100.207c47.671,0,88.989-33.906,98.245-80.619
	c0.841-4.245-1.918-8.37-6.164-9.211c-4.245-0.842-8.37,1.917-9.211,6.164c-7.806,39.398-42.659,67.993-82.871,67.993
	c-46.586,0-84.485-37.921-84.485-84.533s37.899-84.533,84.485-84.533c38.146,0,71.699,25.708,81.594,62.515
	c1.123,4.181,5.421,6.658,9.603,5.534c4.18-1.123,6.657-5.422,5.533-9.603c-2.652-9.866-6.749-19.049-12.007-27.37l47.499,26.467
	v166.873c0,12.877,10.467,23.353,23.333,23.353c12.871,0,23.343-10.476,23.343-23.353v-180.6c0-8.453-4.59-16.268-11.984-20.397
	l-36.611-20.402l59.159,14.597v112.364c0,12.877,10.472,23.353,23.343,23.353c12.871,0,23.343-10.476,23.343-23.353V263.555
	C492.147,252.79,484.848,243.465,474.391,240.878z M420.485,156.507c3.33-0.984,5.614-4.043,5.614-7.515V63.927
	c0-4.235,3.44-7.68,7.67-7.68c4.23,0,7.67,3.445,7.67,7.68v96.653c0,3.376-2.262,6.405-5.493,7.364l-106.928,31.622v-5.706
	c0-3.379-0.279-6.751-0.777-10.079L420.485,156.507z M350.664,122.436c1.708-1.488,2.69-3.644,2.69-5.909V23.353
	c0-4.235,3.44-7.68,7.67-7.68c4.223,0,7.659,3.445,7.659,7.68v100.237c0,2.221-0.957,4.328-2.63,5.784l-42.751,37.25
	c-2.095-4.769-4.738-9.303-7.869-13.496L350.664,122.436z M279.688,89.422c4.207,0,8.181,1.656,11.188,4.663
	c3.007,3.007,4.663,6.981,4.663,11.188v29.911c-9.569-5.709-20.396-8.968-31.702-9.463v-20.449
	C263.837,96.533,270.948,89.422,279.688,89.422z M232.313,89.422c4.207,0,8.18,1.656,11.188,4.663
	c3.007,3.007,4.663,6.98,4.663,11.188v20.45c-11.305,0.494-22.132,3.753-31.702,9.464v-29.913
	C216.462,96.533,223.572,89.422,232.313,89.422z M143.319,123.591V23.353c0-4.235,3.436-7.68,7.659-7.68
	c4.229,0,7.67,3.445,7.67,7.68v93.174c0,2.265,0.98,4.421,2.69,5.909l35.231,30.692c-3.135,4.196-5.778,8.73-7.869,13.49
	l-42.753-37.245C144.276,127.918,143.319,125.812,143.319,123.591z M56.825,268.098c-3.5,0.864-5.959,4.004-5.959,7.609v118.502
	c0,4.235-3.441,7.68-7.67,7.68s-7.67-3.445-7.67-7.68V263.555c0-3.541,2.402-6.609,5.837-7.458l141.619-34.938v14.178l-5.252,2.928
	L56.825,268.098z M112.129,310.322c-2.483,1.383-4.023,4.004-4.023,6.846v171.478c0,4.235-3.436,7.68-7.659,7.68
	c-4.229,0-7.67-3.445-7.67-7.68v-180.6c0-2.779,1.512-5.351,3.94-6.707l86.266-48.072v17.573L112.129,310.322z M198.657,266.653
	v-26.779c0-0.015,0-0.029,0-0.044v-29.854c0-0.017,0-0.033,0-0.05V193.86c0-3.993,0.458-7.981,1.37-11.887
	c0.001-0.004,0.002-0.009,0.003-0.014c0.004-0.018,0.008-0.036,0.013-0.053c0.115-0.499,0.237-1.007,0.395-1.574
	c2.262-8.425,6.674-16.261,12.768-22.668c0.318-0.326,0.634-0.652,0.955-0.972c9.941-9.912,23.09-15.371,37.025-15.371h9.634
	c13.934,0,27.083,5.459,37.018,15.363c0,0,0,0,0.001,0.001l0.001,0.001c0.326,0.326,0.643,0.652,0.968,0.985
	c6.085,6.4,10.498,14.236,12.779,22.731c0.138,0.494,0.258,0.999,0.378,1.521v0.001c0.006,0.027,0.014,0.051,0.02,0.078
	c0.904,3.874,1.363,7.863,1.363,11.855v16.065c0,0.017,0,0.033,0,0.05v29.861c0,0.016,0,0.031,0,0.047v26.757
	c-16.414-11.469-36.287-18.083-57.344-18.083C234.688,248.556,214.912,255.255,198.657,266.653z M419.224,308.046v180.6
	c0,4.235-3.44,7.68-7.67,7.68c-4.223,0-7.659-3.445-7.659-7.68V317.168c0-2.842-1.539-5.463-4.023-6.846l-70.856-39.481v-17.564
	l86.259,48.059C417.712,302.695,419.224,305.267,419.224,308.046z"/>
<g>
</g>
<g>
</g>
<g>
</g>
<g>
</g>
<g>
</g>
<g>
</g>
<g>
</g>
<g>
</g>
<g>
</g>
<g>
</g>
<g>
</g>
<g>
</g>
<g>
</g>
<g>
</g>
<g>
</g>
</svg>
