<?xml version="1.0" encoding="iso-8859-1"?>
<!-- Generator: Adobe Illustrator 19.0.0, SVG Export Plug-In . SVG Version: 6.00 Build 0)  -->
<svg version="1.1" id="Layer_1" xmlns="http://www.w3.org/2000/svg" xmlns:xlink="http://www.w3.org/1999/xlink" x="0px" y="0px"
	 viewBox="0 0 512 512" style="enable-background:new 0 0 512 512;" xml:space="preserve">
<path style="fill:#FBD476;" d="M158.82,261.897c0,6.494-5.263,11.757-11.758,11.757h-26.679
	c-62.058,0-112.546-50.483-112.546-112.535c0-33.548,14.755-63.723,38.124-84.355c19.851-17.531,45.925-28.181,74.422-28.181h25.322
	c6.495,0,11.758,5.262,11.758,11.757c0,6.494-5.263,11.757-11.758,11.757h-25.322c-23.297,0-44.515,8.99-60.397,23.67
	c-17.595,16.277-28.632,39.551-28.632,65.351c0,49.084,39.941,89.022,89.029,89.022h26.679
	C153.557,250.14,158.82,255.403,158.82,261.897z"/>
<path style="fill:#3F5666;" d="M157.463,60.341c0,6.494-5.263,11.757-11.758,11.757h-25.322c-23.297,0-44.515,8.99-60.397,23.67
	L45.961,76.764c19.851-17.531,45.925-28.181,74.422-28.181h25.322C152.2,48.584,157.463,53.846,157.463,60.341z"/>
<g>
	<path style="fill:#CCA75E;" d="M395.912,445.025l-2.965,15.023c-0.385,1.956-2.091,3.36-4.078,3.36h-44.167
		c-2.508,0-4.464-2.164-4.225-4.651l2.414-25l12.402-128.317l49.915-6.744l-25.361,128.568c-0.104,0.499-0.124,0.999-0.042,1.488
		c0.145,1.102,0.739,2.101,1.664,2.777l12.808,9.322C395.59,441.8,396.235,443.434,395.912,445.025z"/>
	<path style="fill:#CCA75E;" d="M260.893,463.408h-35.572c-1.53,0-2.934-0.821-3.683-2.143l-13.766-24.188l-19.758-34.717
		c-0.166-0.292-0.292-0.614-0.385-0.936l-9.978-35.101l-9.499-38.088l73.154-13.784l-15.138,73.105
		c-0.156,0.728-0.115,1.477,0.124,2.185l12.36,37.578c0.021,0.073,0.052,0.145,0.084,0.218c0.364,0.957,1.072,1.738,1.967,2.216
		l18.01,9.446c1.072,0.562,1.841,1.55,2.143,2.726l4.047,16.208C265.679,460.818,263.651,463.408,260.893,463.408z"/>
</g>
<g>
	<path style="fill:#F2E5CB;" d="M260.893,463.408h-35.572c-1.53,0-2.934-0.821-3.683-2.143l-13.766-24.188l30.963-9.54
		c0.364,0.957,1.072,1.738,1.967,2.216l18.01,9.446c1.072,0.562,1.841,1.55,2.143,2.726l4.047,16.208
		C265.679,460.818,263.651,463.408,260.893,463.408z"/>
	<path style="fill:#F2E5CB;" d="M395.912,445.025l-2.965,15.023c-0.385,1.956-2.091,3.36-4.078,3.36h-44.167
		c-2.508,0-4.464-2.164-4.225-4.651l2.414-25l36.915-5.004c0.145,1.102,0.739,2.101,1.665,2.777l12.808,9.322
		C395.59,441.8,396.235,443.434,395.912,445.025z"/>
</g>
<path style="fill:#FBD476;" d="M504.163,140.942v20.95c0,16.959-13.751,30.699-30.699,30.699l-30.396,2.706
	c0,0,29.727,75.368,13.396,108.492c-5.256,10.648-6.698,25.788-6.175,41.712c1.202,36.415,12.737,76.884,12.737,76.884
	c0.042,0.313,0.115,0.616,0.209,0.899c0.334,0.909,0.972,1.693,1.818,2.205l20.334,11.985c1.275,0.773,2.069,2.152,2.069,3.636
	l-2.717,18.056c0,2.341-1.912,4.242-4.253,4.242h-44.659c-1.964,0-3.678-1.348-4.127-3.26l-6.217-25.955
	c0,0-13.291-51.576-23.688-98.482c-0.084-0.376-0.219-0.731-0.387-1.055c-0.825-1.567-2.57-2.476-4.399-2.163
	c-70.74,12.361-111.334-5.057-111.334-5.057s-78.148,9.592-80.948,10.909c-0.031,0.021-0.052,0.031-0.052,0.031l-24.795,32.538
	c-10.303,13.521-26.331,21.462-43.332,21.462h-23.96c-2.341,0-4.242,1.902-4.242,4.242v33.928c0,0.449,0.073,0.878,0.209,1.285
	c0.261,0.836,0.773,1.578,1.484,2.1l9.822,7.367c0.784,0.585,1.337,1.421,1.567,2.361l3.626,14.472
	c0.669,2.685-1.358,5.277-4.106,5.277H86.079c-2.341,0-4.232-1.891-4.232-4.232v-90.603c0-1.651,0.94-3.145,2.435-3.845
	l29.048-13.615c1.484-0.7,2.445-2.194,2.445-3.835v-57.741c0-34.534,25.684-63.687,59.935-68.023l133.945-16.98
	c3.051-0.387,6.029-1.024,8.913-1.902c0.021-0.01,0.042-0.01,0.063-0.021c15.653-4.796,28.453-16.593,34.377-32.225l40.093-61.179
	l20.208-1.567l29.435-2.288c12.382-0.961,24.357,4.754,31.357,15.005c2.56,3.751,4.211,6.531,4.211,6.531
	C480.611,126.888,504.163,138.643,504.163,140.942z"/>
<g>
	<path style="fill:#CCA75E;" d="M450.294,460.152l-6.222-25.957c0,0-13.292-51.583-23.683-98.488
		c-0.482-2.178-2.589-3.597-4.787-3.212c-4.886,0.854-9.622,1.561-14.218,2.146c0.179,0.331,0.329,0.681,0.415,1.067
		c10.39,46.904,23.683,98.488,23.683,98.488l6.222,25.957c0.447,1.904,2.164,3.256,4.12,3.256h18.59
		C452.458,463.408,450.741,462.056,450.294,460.152z"/>
	<path style="fill:#CCA75E;" d="M100.431,459.174v-99.725c0-1.04,0.38-2.019,1.034-2.776l-17.19,8.058
		c-1.488,0.697-2.435,2.195-2.435,3.839v90.604c0,2.338,1.895,4.234,4.235,4.234h18.59
		C102.328,463.408,100.431,461.513,100.431,459.174z"/>
	<path style="fill:#CCA75E;" d="M193.187,219.301l-17.476,2.215c-34.252,4.338-59.941,33.489-59.941,68.019v57.74
		c0,1.038-0.383,2.017-1.039,2.773l17.191-8.059c1.488-0.698,2.438-2.192,2.438-3.836v-48.618c0-33.505,24.191-61.936,56.919-67.557
		c1.25-0.214,2.034-1.391,1.91-2.653L193.187,219.301z"/>
	<path style="fill:#CCA75E;" d="M413.309,107.641l-41.702,62.746c-4.117,10.856-11.557,19.864-20.971,25.955
		c-6.708,4.347-14.639,6.447-22.633,6.29c-3.145-0.052-6.29-0.052-9.435,0c0.021-0.01,0.042-0.01,0.063-0.021
		c15.653-4.796,28.453-16.593,34.377-32.225l40.093-61.179L413.309,107.641z"/>
</g>
<g>
	<path style="fill:#F2E5CB;" d="M504.163,158.444v3.448c0,16.959-13.751,30.699-30.699,30.699l-30.396,2.706
		c0,0,29.727,75.368,13.396,108.492c-5.256,10.648-6.698,25.788-6.175,41.712c-20.031-18.066-47.971-10.752-48.88-10.846
		c-0.825-1.567-2.57-2.476-4.399-2.163c-70.74,12.361-111.334-5.057-111.334-5.057s-78.148,9.592-80.948,10.909
		c2.1-1.515,66.675-47.679,92.724-36.028c26.467,11.849,59.204,8.359,105.744-1.39c46.529-9.749,25.213-80.802,16.018-105.88
		c-9.195-25.078,21.734-27.167,62.83-29.748C492.084,164.672,499.179,162.049,504.163,158.444z"/>
	<path style="fill:#F2E5CB;" d="M120.942,463.408H86.077c-2.341,0-4.235-1.904-4.235-4.244v-23.939l26.709-3.392
		c0.26,0.833,0.781,1.57,1.488,2.101l9.822,7.366c0.781,0.583,1.342,1.415,1.572,2.361l3.621,14.472
		C125.718,460.818,123.699,463.408,120.942,463.408z"/>
	<path style="fill:#F2E5CB;" d="M487.451,441.113l-2.716,18.051c0,2.341-1.904,4.244-4.245,4.244h-44.666
		c-1.956,0-3.673-1.352-4.12-3.256l-6.222-25.957l37.758-10.913c0.333,0.915,0.968,1.696,1.811,2.206l20.341,11.985
		C486.66,438.242,487.451,439.626,487.451,441.113z"/>
</g>
<path style="fill:#FBDB71;" d="M388.501,93.341l16.151,7.834c10.384,5.036,14.368,20.637,9.183,35.957l-1.957,5.78
	c-1.719,5.076-6.974,7.117-9.987,3.878l-20.52-13.404C367.416,119.353,377.799,89.803,388.501,93.341z"/>
<path style="fill:#F2E5CB;" d="M388.501,93.341l16.151,7.834c10.384,5.036,14.368,20.637,9.183,35.957l-1.957,5.78
	c-1.719,5.076-6.974,7.117-9.987,3.878l-20.52-13.404C367.416,119.353,377.799,89.803,388.501,93.341z"/>
<circle cx="457.111" cy="134.662" r="7.837"/>
<path d="M495.729,126.107c-5.902-3.083-9.73-4.819-12.273-5.796c-0.747-1.173-1.726-2.68-2.882-4.373
	c-8.555-12.524-23.277-19.575-38.438-18.398l-26.713,2.079c-2.1-2.268-4.556-4.14-7.351-5.495l-16.151-7.834
	c-0.311-0.152-0.632-0.281-0.96-0.39c-8.119-2.683-14.956,2.739-18.649,8.708c-5.872,9.498-7.614,24.104-2.394,35.669
	l-23.465,35.814c-0.312,0.478-0.573,0.988-0.774,1.522c-1.089,2.877-2.462,5.631-4.093,8.202
	c-4.663,7.386-11.311,13.257-19.217,16.972c-4.35,2.039-8.957,3.374-13.7,3.972l-133.951,16.98c-2.779,0.355-5.572,0.867-8.3,1.522
	c-0.002,0.001-0.005,0.001-0.007,0.002c-0.068,0.017-0.135,0.036-0.202,0.053c-16.62,4.044-31.349,13.56-41.917,26.989h-3.909
	c-35.939,0-68.022-24.125-78.018-58.666c-1.203-4.158-5.549-6.552-9.706-5.349c-4.158,1.204-6.553,5.549-5.349,9.707
	c11.408,39.416,46.929,67.441,87.522,69.801c-1.138,2.493-2.136,5.048-2.999,7.657c-25.116-2.029-48.467-12.966-66.286-31.185
	c-19.265-19.696-29.874-45.676-29.874-73.153c0-27.099,10.576-53.083,29.274-72.531l4.722,6.398
	c-11.791,12.573-19.966,27.917-23.781,44.768c-0.956,4.221,1.691,8.418,5.912,9.374c4.22,0.957,8.419-1.691,9.374-5.912
	c3.632-16.036,11.978-30.452,24.134-41.69c0.913-0.843,1.843-1.662,2.788-2.46c0.493-0.415,1-0.81,1.502-1.212
	c14.401-11.584,32.219-17.923,50.785-17.923h25.318c10.808,0,19.602-8.789,19.602-19.592s-8.794-19.592-19.602-19.592h-25.318
	c-29.238,0-57.418,10.637-79.383,29.952c-0.074,0.066-0.152,0.126-0.226,0.191c-0.021,0.019-0.039,0.04-0.06,0.059
	C14.839,93.827,0,126.687,0,161.119c0,31.599,12.196,61.47,34.342,84.112c19.978,20.428,46.014,32.897,74.088,35.662
	c-0.326,2.866-0.493,5.753-0.493,8.643v55.448l-26.981,12.646c-4.219,1.978-6.945,6.273-6.945,10.942v66.541
	c0,0.037-0.005,0.073-0.005,0.11v23.939c0,0.723,0.075,1.427,0.197,2.115c0.016,0.091,0.024,0.184,0.042,0.275
	c0.033,0.165,0.082,0.324,0.121,0.486c0.056,0.233,0.109,0.468,0.18,0.696c0.018,0.056,0.041,0.111,0.06,0.167
	c0.463,1.432,1.188,2.766,2.161,3.94c0.005,0.005,0.01,0.01,0.016,0.017c0.234,0.281,0.479,0.556,0.74,0.818
	c0.004,0.004,0.009,0.007,0.013,0.011c0.351,0.352,0.73,0.675,1.122,0.982c0.13,0.101,0.259,0.199,0.393,0.294
	c0.393,0.283,0.797,0.55,1.224,0.784c0.015,0.008,0.028,0.019,0.043,0.027c0.003,0.002,0.006,0.003,0.009,0.004
	c0.401,0.218,0.82,0.408,1.247,0.581c0.11,0.044,0.223,0.082,0.333,0.122c0.329,0.122,0.664,0.23,1.005,0.323
	c0.125,0.034,0.25,0.067,0.375,0.097c0.344,0.082,0.693,0.146,1.046,0.199c0.116,0.017,0.23,0.04,0.347,0.053
	c0.46,0.053,0.925,0.088,1.399,0.088h0.002h34.863h0.005c3.738,0,7.204-1.691,9.508-4.639c2.307-2.953,3.111-6.732,2.201-10.379
	l-1.336-5.334l-2.271-9.078c-0.412-1.693-1.191-3.271-2.263-4.623c-0.642-0.811-1.388-1.54-2.222-2.164l-8.38-6.284v-28.528h20.364
	c14.344,0,27.926-4.827,38.835-13.557l4.818,16.949c0.276,0.95,0.649,1.84,1.104,2.636l33.527,58.911
	c0.249,0.436,0.529,0.848,0.825,1.244c0.019,0.025,0.033,0.054,0.053,0.079c0.215,0.283,0.458,0.538,0.696,0.799
	c0.121,0.133,0.229,0.279,0.356,0.406c0.138,0.138,0.294,0.255,0.438,0.387c0.248,0.225,0.488,0.458,0.752,0.66
	c0.03,0.023,0.064,0.041,0.095,0.064c1.646,1.242,3.594,2.064,5.671,2.343c0.092,0.013,0.187,0.008,0.279,0.019
	c0.438,0.049,0.878,0.089,1.325,0.089h0.001h35.568h0.003c3.75,0,7.222-1.696,9.526-4.654c1.897-2.433,2.751-5.424,2.493-8.425
	c-0.054-0.647-0.143-1.294-0.303-1.936l-2.794-11.171l-1.268-5.078c-0.789-3.08-2.766-5.711-5.458-7.344
	c-0.212-0.129-0.419-0.264-0.639-0.38l-2.829-1.483l-13.881-7.281l-11.609-35.289l9.854-47.604c0.994-0.129,1.984-0.259,2.978-0.387
	c4.293-0.55,7.329-4.475,6.778-8.769c-0.55-4.292-4.479-7.322-8.769-6.778c-2.07,0.265-4.145,0.536-6.201,0.805l-2.35,0.306
	c-33.874,4.443-34.304,4.757-36.374,6.27c-0.609,0.445-1.151,0.977-1.609,1.577l-24.794,32.54c-0.134,0.174-0.265,0.351-0.405,0.519
	c-0.039,0.047-0.077,0.095-0.116,0.143c-8.895,11.256-22.226,17.711-36.578,17.711h-23.96c-6.66,0-12.079,5.419-12.079,12.079
	v28.337l-10.825,1.375v-55.476l26.99-12.651c4.214-1.988,6.938-6.276,6.938-10.922v-57.741c0-4.756,0.557-9.502,1.658-14.111
	c1.781-7.488,4.927-14.478,9.351-20.775c6.415-9.126,15.135-16.239,25.171-20.669l-1.722,31.219
	c-0.239,4.322,3.071,8.018,7.393,8.257c0.147,0.008,0.293,0.011,0.439,0.011c4.129,0,7.588-3.231,7.817-7.405l2.021-36.627
	c0.32-0.046,0.639-0.109,0.958-0.149l26.609-3.373v47.738c0,4.328,3.508,7.837,7.837,7.837c4.329,0,7.837-3.509,7.837-7.837v-49.726
	l24.176-3.065l5.051,48.973c0.415,4.032,3.818,7.033,7.786,7.033c0.269,0,0.54-0.014,0.813-0.042c4.305-0.444,7.435-4.293,6.99-8.6
	l-5.089-49.337l25.371-3.216l14.53,52.063c0.966,3.464,4.115,5.732,7.544,5.732c0.697,0,1.406-0.094,2.111-0.29
	c4.169-1.164,6.605-5.486,5.442-9.655l-13.91-49.843l10.841-1.374c3.697-0.465,7.331-1.276,10.876-2.401l19.513,44.933
	c1.283,2.953,4.165,4.717,7.192,4.717c1.042,0,2.101-0.209,3.117-0.651c3.971-1.724,5.791-6.34,4.067-10.31l-19.673-45.298
	c4.813-3.04,9.168-6.725,12.953-10.957l30.291,34.151c1.549,1.746,3.702,2.636,5.866,2.636c1.849,0,3.705-0.651,5.197-1.974
	c3.238-2.872,3.535-7.825,0.664-11.063l-32.916-37.112c0.817-1.627,1.568-3.291,2.24-4.99l8.588-13.107l38.044,27.115
	c1.378,0.983,2.968,1.456,4.541,1.456c2.448,0,4.86-1.143,6.389-3.288c2.512-3.524,1.691-8.418-1.834-10.93l-38.544-27.471
	l3.551-5.42l16.233,10.604c2.344,2.107,5.326,3.241,8.429,3.241c0.9,0,1.811-0.096,2.72-0.29c5.07-1.089,9.349-5.101,11.167-10.471
	l1.958-5.78c2.916-8.615,3.368-17.31,1.716-24.893l20.377-1.586c9.564-0.744,18.88,3.705,24.277,11.608
	c2.372,3.476,3.933,6.093,3.946,6.117c1.191,2.004,3.198,3.355,5.456,3.729c3.309,1.083,14.507,6.752,19.296,9.798v17.474
	c0,12.607-10.256,22.862-22.862,22.862c-0.232,0-0.464,0.01-0.695,0.031l-30.396,2.706c-2.46,0.219-4.674,1.586-5.972,3.687
	c-1.298,2.101-1.53,4.693-0.626,6.99c0.034,0.087,3.464,8.834,7.261,21.382c1.024,3.387,4.135,5.569,7.498,5.569
	c0.752,0,1.516-0.109,2.273-0.338c4.143-1.253,6.485-5.628,5.232-9.771c-1.493-4.934-2.922-9.282-4.134-12.813l19.925-1.774
	c21.08-0.2,38.168-17.409,38.168-38.535v-20.95C512,135.85,508.806,132.939,495.729,126.107z M120.383,56.42h25.318
	c2.166,0,3.929,1.758,3.929,3.918s-1.763,3.918-3.929,3.918h-25.318c-21.378,0-41.936,7.021-58.787,19.927
	c-0.091,0.067-0.182,0.132-0.272,0.201l-4.634-6.279C74.921,64.09,97.265,56.42,120.383,56.42z M227.414,455.571l-7.9-13.881
	l17.144-5.282c0.141,0.085,0.286,0.164,0.433,0.243c0.024,0.013,0.045,0.028,0.069,0.041l16.583,8.696l0.938,3.752l1.606,6.431
	H227.414z M209.162,345.415c2.49-0.418,7.662-1.197,18.368-2.644l-8.949,43.233c-0.424,2.096-0.292,4.259,0.363,6.187l9.939,30.211
	l-17.313,5.334l-16.415-28.845l-7.265-25.558L209.162,345.415z M105.265,440.151c0.023,0.019,0.048,0.037,0.071,0.054l8.8,6.599
	l2.196,8.768H89.684v-13.443L105.265,440.151z M406.412,134.618l-1.598,4.72l-18.382-12.007c-3.287-3.717-4.646-9.695-3.644-16.172
	c0.795-5.134,2.776-8.618,4.043-9.918l14.4,6.985C407.062,111.054,410.701,121.949,406.412,134.618z"/>
<path d="M489.37,430.721l-19.015-11.203c-6.476-23.069-19.786-86.054-6.859-112.265c3.015-6.113,4.823-13.66,5.443-22.545
	c0.046-0.323,0.079-0.65,0.086-0.985c0.001-0.052-0.005-0.102-0.005-0.155c0.433-7.528,0.031-15.994-1.218-25.369
	c-0.573-4.29-4.52-7.305-8.804-6.732c-4.289,0.572-7.304,4.513-6.732,8.803c0.735,5.505,1.144,10.637,1.235,15.355l-30.032-0.503
	c-4.283-0.047-7.895,3.377-7.967,7.705c-0.072,4.328,3.377,7.894,7.704,7.967l29.131,0.488c-0.677,3.459-1.639,6.491-2.895,9.039
	c-1.398,2.835-2.58,5.999-3.564,9.455h-24.496c-4.329,0-7.837,3.509-7.837,7.837c0,4.328,3.508,7.837,7.837,7.837h21.647
	c-0.557,5.592-0.76,11.703-0.61,18.322l-12.882,1.19c-4.31,0.398-7.481,4.215-7.082,8.524c0.375,4.065,3.791,7.117,7.794,7.117
	c0.24,0,0.485-0.012,0.729-0.033l12.357-1.141c0.469,5.113,1.116,10.475,1.926,16.067l-8.132,1.237
	c-4.28,0.651-7.22,4.648-6.569,8.927c0.59,3.88,3.931,6.659,7.737,6.659c0.393,0,0.79-0.029,1.189-0.09l8.332-1.267
	c2.117,11.366,4.385,20.936,5.904,26.92l-22.638,6.543c-4.098-16.192-13.751-54.85-21.627-90.405
	c-1.058-4.784-4.818-8.268-9.346-9.179c-0.015-0.003-0.029-0.008-0.044-0.01c-0.053-0.01-0.106-0.014-0.158-0.023
	c-1.365-0.251-2.793-0.279-4.239-0.026c-67.217,11.746-106.533-4.386-106.901-4.541c-3.978-1.708-8.585,0.135-10.292,4.112
	c-1.706,3.978,0.135,8.586,4.113,10.292c1.24,0.533,22.756,9.502,61.04,10.108l-8.525,88.218c-0.001,0.015-0.006,0.028-0.007,0.043
	l-2.416,25.003c-0.325,3.381,0.8,6.764,3.086,9.28c1.714,1.886,3.975,3.168,6.431,3.692c0.819,0.174,1.659,0.264,2.509,0.264h44.168
	h0.001c0.615,0,1.219-0.056,1.813-0.147c0.095-0.015,0.193-0.022,0.287-0.039c0.022-0.004,0.044-0.01,0.067-0.015
	c4.761-0.879,8.638-4.595,9.599-9.478l2.863-14.505l0.094-0.478c0-0.001,0-0.003,0.001-0.004l0.003-0.017
	c0.025-0.127,0.042-0.256,0.063-0.383c0.026-0.155,0.056-0.309,0.076-0.464c0.03-0.236,0.048-0.472,0.064-0.707
	c0.003-0.049,0.01-0.098,0.014-0.147c0.185-3.423-1.116-6.777-3.544-9.173c-0.018-0.018-0.034-0.037-0.052-0.054
	c-0.022-0.022-0.047-0.042-0.069-0.064c-0.392-0.376-0.808-0.731-1.255-1.055l-10.915-7.942l12.295-62.323
	c8.61,36.817,17.168,70.142,17.604,71.839l6.198,25.857c1.285,5.476,6.117,9.302,11.749,9.302h44.666
	c6.417,0,11.682-5.027,12.061-11.35l2.65-17.616c0.057-0.386,0.087-0.775,0.087-1.166
	C495.288,436.916,493.052,432.952,489.37,430.721z M348.66,455.571l1.438-14.881l25.903-3.511c0.274,0.241,0.56,0.472,0.858,0.69
	l10.91,7.941l-1.929,9.761H348.66z M372.948,421.775l-21.3,2.887l7.744-80.144c9.056-0.394,18.845-1.262,29.344-2.773
	L372.948,421.775z M477.351,455.571h-38.686l-3.817-15.926l26.034-7.524c0.064,0.04,0.126,0.079,0.191,0.118l18.178,10.71
	L477.351,455.571z"/>
<g>
</g>
<g>
</g>
<g>
</g>
<g>
</g>
<g>
</g>
<g>
</g>
<g>
</g>
<g>
</g>
<g>
</g>
<g>
</g>
<g>
</g>
<g>
</g>
<g>
</g>
<g>
</g>
<g>
</g>
</svg>
